<?xml version="1.0" encoding="UTF-8"?>
<svg version="1.1" xmlns="http://www.w3.org/2000/svg" width="530" height="530">
<path d="M0 0 C1.58236775 -0.00693512 3.1647258 -0.01647885 4.74706411 -0.02836347 C9.04290767 -0.05314325 13.33793965 -0.04115527 17.63378406 -0.02244616 C22.28693999 -0.00876546 26.93996476 -0.02987649 31.59309387 -0.04632568 C40.68787594 -0.07289953 49.78235964 -0.06729028 58.87715304 -0.04984984 C66.27365147 -0.03625756 73.67006674 -0.0344799 81.0665741 -0.04099274 C82.12232583 -0.04191214 83.17807757 -0.04283153 84.26582178 -0.04377879 C86.4110693 -0.04569729 88.55631679 -0.04764257 90.70156425 -0.04961434 C110.78179835 -0.06669258 130.86186765 -0.04710047 150.94207472 -0.01481214 C168.14347244 0.0119916 185.34462716 0.00733458 202.54602051 -0.02032471 C222.5581132 -0.05248879 242.57006175 -0.06504491 262.58217669 -0.04665112 C264.71919789 -0.04473998 266.85621911 -0.04285376 268.99324036 -0.04099274 C270.57011136 -0.03960426 270.57011136 -0.03960426 272.17883834 -0.03818773 C279.55995007 -0.03302365 286.94096979 -0.04171584 294.32206726 -0.05587006 C303.3265406 -0.072759 312.33070043 -0.06801702 321.3351382 -0.03618559 C325.92274135 -0.02049848 330.50982324 -0.01410076 335.09742165 -0.03408051 C339.308324 -0.05214129 343.51822877 -0.04184175 347.72904235 -0.01021519 C349.24092985 -0.00358897 350.7529041 -0.00674881 352.26473445 -0.02146992 C376.53799786 -0.23943791 397.57629908 12.19507787 414.77990723 28.57440186 C428.60330465 42.93550031 440.61773444 63.82102927 440.66971493 84.16775799 C440.67540617 85.4694026 440.68109741 86.7710472 440.68696111 88.11213559 C440.68825366 89.55493581 440.6894417 90.99773612 440.6905365 92.4405365 C440.69526903 93.97469995 440.70042015 95.50886216 440.70595413 97.04302293 C440.71984841 101.2611609 440.72744052 105.47929025 440.73392713 109.69744527 C440.74030277 113.31519425 440.75037233 116.93292911 440.76048779 120.55066928 C440.79380053 132.47152823 440.81533371 144.39239579 440.83368763 156.31328604 C440.83848441 159.41914477 440.84346754 162.52500315 440.84849286 165.63086152 C440.87947126 184.93075865 440.90614827 204.23065882 440.92291164 223.53057384 C440.92686096 228.0005055 440.93086397 232.47043711 440.93493652 236.94036865 C440.93594488 238.05130948 440.93695325 239.16225031 440.93799216 240.30685601 C440.95498174 258.28432303 440.99607178 276.26165198 441.04695951 294.23905166 C441.09881385 312.71047914 441.12786439 331.18183576 441.13510853 349.65333539 C441.13976146 360.01842699 441.1544145 370.38329267 441.19485283 380.748312 C441.22926858 389.5802575 441.24304568 398.41193629 441.23042869 407.24394497 C441.22462836 411.74454323 441.22827867 416.2445783 441.25859833 420.74509048 C441.47837537 455.23094039 441.47837537 455.23094039 434.52990723 469.76190186 C433.84826505 471.25782483 433.16797889 472.75436632 432.48892879 474.2514677 C429.02621729 481.81775087 425.01351682 488.4638948 419.52990723 494.76190186 C418.72553223 495.79315186 417.92115723 496.82440186 417.09240723 497.88690186 C413.82050327 501.55781849 410.35858194 504.6807303 406.52990723 507.76190186 C405.55279785 508.54951904 404.57568848 509.33713623 403.56896973 510.14862061 C397.16411355 515.10814584 390.61042069 518.95623762 383.15490723 522.13690186 C382.07922485 522.60084351 382.07922485 522.60084351 380.98181152 523.07415771 C368.2733907 528.20632415 355.83619692 530.36564726 342.16712952 530.25637817 C340.69287805 530.25956496 339.21862954 530.26450259 337.744389 530.27101099 C333.74285062 530.28369052 329.74172454 530.27181837 325.74021375 530.25548244 C321.40542071 530.24221151 317.07066944 530.25225065 312.73587036 530.25924683 C304.26329599 530.2692846 295.79087885 530.2581057 287.31832404 530.23954622 C277.43456936 530.21868144 267.55084783 530.21892119 257.66707527 530.21989138 C240.02130333 530.22089075 222.3756041 530.2026212 204.7298584 530.17352295 C187.64000117 530.14535629 170.55020791 530.13118142 153.46032715 530.13250732 C152.40778516 530.13258724 151.35524317 530.13266715 150.27080596 530.13274948 C149.2200145 530.13283019 148.16922303 530.1329109 147.0865894 530.13299406 C127.58440333 530.13437702 108.08224423 530.12257438 88.58006694 530.10468762 C81.70444989 530.09867755 74.82883784 530.09653119 67.95321846 530.09562302 C59.56365873 530.09425264 51.17414448 530.08523909 42.78460402 530.0669574 C38.51108371 530.05778183 34.23762116 530.05160785 29.96409035 530.05414581 C26.04027463 530.05636294 22.11658588 530.04913741 18.19279658 530.03484876 C16.78518003 530.03127236 15.37755015 530.03091126 13.96993334 530.03438334 C-16.02806482 530.10009602 -41.83669589 522.19089908 -63.47009277 500.76190186 C-77.36073465 486.55047009 -89.56548519 466.65126165 -89.60710716 446.26957893 C-89.60975899 445.62841003 -89.61241082 444.98724113 -89.615143 444.32664287 C-89.62281003 442.17550055 -89.62339418 440.02441556 -89.62399292 437.8732605 C-89.62800927 436.31633516 -89.63244778 434.75941087 -89.63727248 433.20248783 C-89.64922485 428.92154805 -89.65488334 424.64061953 -89.65945363 420.35966635 C-89.66541489 415.74319312 -89.67702353 411.12673332 -89.68774414 406.51026917 C-89.71225764 395.35905457 -89.72689453 384.20783554 -89.73980421 373.0566023 C-89.74351716 369.90584571 -89.74749031 366.75508955 -89.75155687 363.6043334 C-89.77679636 344.0302388 -89.79884518 324.45614349 -89.81128502 304.88203621 C-89.81421463 300.34882734 -89.8171763 295.81561849 -89.82019043 291.28240967 C-89.82093648 290.15572883 -89.82168253 289.029048 -89.82245119 287.86822532 C-89.83509805 269.62685801 -89.86831263 251.38558832 -89.90999226 233.14426662 C-89.95245263 214.40729964 -89.97598486 195.67038257 -89.98120558 176.93336761 C-89.98461523 166.41693881 -89.99631761 155.90066252 -90.02930832 145.38428116 C-90.05736647 136.42564157 -90.06828292 127.46718576 -90.05711286 118.50850566 C-90.0519408 113.94151477 -90.05471795 109.3749084 -90.0795784 104.80797386 C-90.10219632 100.6178158 -90.10123484 96.42831566 -90.08237453 92.2381451 C-90.07959195 90.73129905 -90.08507491 89.22440717 -90.10018747 87.71763434 C-90.29303932 67.21765486 -81.91609316 49.02631373 -68.47009277 33.76190186 C-67.78302246 32.93174561 -67.09595215 32.10158936 -66.38806152 31.24627686 C-49.72342178 11.66907846 -25.57976707 -0.24907733 0 0 Z " fill="#28318F" transform="translate(89.4700927734375,-0.76190185546875)"/>
<path d="M0 0 C1.58236775 -0.00693512 3.1647258 -0.01647885 4.74706411 -0.02836347 C9.04290767 -0.05314325 13.33793965 -0.04115527 17.63378406 -0.02244616 C22.28693999 -0.00876546 26.93996476 -0.02987649 31.59309387 -0.04632568 C40.68787594 -0.07289953 49.78235964 -0.06729028 58.87715304 -0.04984984 C66.27365147 -0.03625756 73.67006674 -0.0344799 81.0665741 -0.04099274 C82.12232583 -0.04191214 83.17807757 -0.04283153 84.26582178 -0.04377879 C86.4110693 -0.04569729 88.55631679 -0.04764257 90.70156425 -0.04961434 C110.78179835 -0.06669258 130.86186765 -0.04710047 150.94207472 -0.01481214 C168.14347244 0.0119916 185.34462716 0.00733458 202.54602051 -0.02032471 C222.5581132 -0.05248879 242.57006175 -0.06504491 262.58217669 -0.04665112 C264.71919789 -0.04473998 266.85621911 -0.04285376 268.99324036 -0.04099274 C270.57011136 -0.03960426 270.57011136 -0.03960426 272.17883834 -0.03818773 C279.55995007 -0.03302365 286.94096979 -0.04171584 294.32206726 -0.05587006 C303.3265406 -0.072759 312.33070043 -0.06801702 321.3351382 -0.03618559 C325.92274135 -0.02049848 330.50982324 -0.01410076 335.09742165 -0.03408051 C339.308324 -0.05214129 343.51822877 -0.04184175 347.72904235 -0.01021519 C349.24092985 -0.00358897 350.7529041 -0.00674881 352.26473445 -0.02146992 C376.53799786 -0.23943791 397.57629908 12.19507787 414.77990723 28.57440186 C428.60330465 42.93550031 440.61773444 63.82102927 440.66971493 84.16775799 C440.67540617 85.4694026 440.68109741 86.7710472 440.68696111 88.11213559 C440.68825366 89.55493581 440.6894417 90.99773612 440.6905365 92.4405365 C440.69526903 93.97469995 440.70042015 95.50886216 440.70595413 97.04302293 C440.71984841 101.2611609 440.72744052 105.47929025 440.73392713 109.69744527 C440.74030277 113.31519425 440.75037233 116.93292911 440.76048779 120.55066928 C440.79380053 132.47152823 440.81533371 144.39239579 440.83368763 156.31328604 C440.83848441 159.41914477 440.84346754 162.52500315 440.84849286 165.63086152 C440.87947126 184.93075865 440.90614827 204.23065882 440.92291164 223.53057384 C440.92686096 228.0005055 440.93086397 232.47043711 440.93493652 236.94036865 C440.93594488 238.05130948 440.93695325 239.16225031 440.93799216 240.30685601 C440.95498174 258.28432303 440.99607178 276.26165198 441.04695951 294.23905166 C441.09881385 312.71047914 441.12786439 331.18183576 441.13510853 349.65333539 C441.13976146 360.01842699 441.1544145 370.38329267 441.19485283 380.748312 C441.22926858 389.5802575 441.24304568 398.41193629 441.23042869 407.24394497 C441.22462836 411.74454323 441.22827867 416.2445783 441.25859833 420.74509048 C441.47837537 455.23094039 441.47837537 455.23094039 434.52990723 469.76190186 C433.84826505 471.25782483 433.16797889 472.75436632 432.48892879 474.2514677 C429.02621729 481.81775087 425.01351682 488.4638948 419.52990723 494.76190186 C418.72553223 495.79315186 417.92115723 496.82440186 417.09240723 497.88690186 C413.82050327 501.55781849 410.35858194 504.6807303 406.52990723 507.76190186 C405.55279785 508.54951904 404.57568848 509.33713623 403.56896973 510.14862061 C397.16411355 515.10814584 390.61042069 518.95623762 383.15490723 522.13690186 C382.07922485 522.60084351 382.07922485 522.60084351 380.98181152 523.07415771 C368.2733907 528.20632415 355.83619692 530.36564726 342.16712952 530.25637817 C340.69287805 530.25956496 339.21862954 530.26450259 337.744389 530.27101099 C333.74285062 530.28369052 329.74172454 530.27181837 325.74021375 530.25548244 C321.40542071 530.24221151 317.07066944 530.25225065 312.73587036 530.25924683 C304.26329599 530.2692846 295.79087885 530.2581057 287.31832404 530.23954622 C277.43456936 530.21868144 267.55084783 530.21892119 257.66707527 530.21989138 C240.02130333 530.22089075 222.3756041 530.2026212 204.7298584 530.17352295 C187.64000117 530.14535629 170.55020791 530.13118142 153.46032715 530.13250732 C152.40778516 530.13258724 151.35524317 530.13266715 150.27080596 530.13274948 C149.2200145 530.13283019 148.16922303 530.1329109 147.0865894 530.13299406 C127.58440333 530.13437702 108.08224423 530.12257438 88.58006694 530.10468762 C81.70444989 530.09867755 74.82883784 530.09653119 67.95321846 530.09562302 C59.56365873 530.09425264 51.17414448 530.08523909 42.78460402 530.0669574 C38.51108371 530.05778183 34.23762116 530.05160785 29.96409035 530.05414581 C26.04027463 530.05636294 22.11658588 530.04913741 18.19279658 530.03484876 C16.78518003 530.03127236 15.37755015 530.03091126 13.96993334 530.03438334 C-16.02806482 530.10009602 -41.83669589 522.19089908 -63.47009277 500.76190186 C-77.36073465 486.55047009 -89.56548519 466.65126165 -89.60710716 446.26957893 C-89.60975899 445.62841003 -89.61241082 444.98724113 -89.615143 444.32664287 C-89.62281003 442.17550055 -89.62339418 440.02441556 -89.62399292 437.8732605 C-89.62800927 436.31633516 -89.63244778 434.75941087 -89.63727248 433.20248783 C-89.64922485 428.92154805 -89.65488334 424.64061953 -89.65945363 420.35966635 C-89.66541489 415.74319312 -89.67702353 411.12673332 -89.68774414 406.51026917 C-89.71225764 395.35905457 -89.72689453 384.20783554 -89.73980421 373.0566023 C-89.74351716 369.90584571 -89.74749031 366.75508955 -89.75155687 363.6043334 C-89.77679636 344.0302388 -89.79884518 324.45614349 -89.81128502 304.88203621 C-89.81421463 300.34882734 -89.8171763 295.81561849 -89.82019043 291.28240967 C-89.82093648 290.15572883 -89.82168253 289.029048 -89.82245119 287.86822532 C-89.83509805 269.62685801 -89.86831263 251.38558832 -89.90999226 233.14426662 C-89.95245263 214.40729964 -89.97598486 195.67038257 -89.98120558 176.93336761 C-89.98461523 166.41693881 -89.99631761 155.90066252 -90.02930832 145.38428116 C-90.05736647 136.42564157 -90.06828292 127.46718576 -90.05711286 118.50850566 C-90.0519408 113.94151477 -90.05471795 109.3749084 -90.0795784 104.80797386 C-90.10219632 100.6178158 -90.10123484 96.42831566 -90.08237453 92.2381451 C-90.07959195 90.73129905 -90.08507491 89.22440717 -90.10018747 87.71763434 C-90.29303932 67.21765486 -81.91609316 49.02631373 -68.47009277 33.76190186 C-67.78302246 32.93174561 -67.09595215 32.10158936 -66.38806152 31.24627686 C-49.72342178 11.66907846 -25.57976707 -0.24907733 0 0 Z M126.52990723 22.76190186 C125.48383301 22.97089111 124.43775879 23.17988037 123.35998535 23.39520264 C89.49419836 30.31663951 56.90739726 44.51994439 29.52990723 65.76190186 C28.78096191 66.32006592 28.0320166 66.87822998 27.26037598 67.45330811 C21.9486342 71.46269638 17.04541951 75.84551275 12.15490723 80.35565186 C9.95837478 82.36913993 7.73191937 84.32610922 5.46740723 86.26190186 C-22.45578276 110.65195352 -42.76332161 144.20863055 -55.47009277 178.76190186 C-55.78220703 179.60768799 -56.09432129 180.45347412 -56.41589355 181.32489014 C-78.58328097 242.28230554 -73.77268984 310.12748957 -46.53259277 368.76190186 C-36.84972301 388.82891442 -24.21177372 407.10224124 -9.47009277 423.76190186 C-8.71083496 424.63201904 -7.95157715 425.50213623 -7.16931152 426.39862061 C1.67326169 436.40345034 11.02225454 445.52032262 21.52990723 453.76190186 C22.46834473 454.52889404 23.40678223 455.29588623 24.37365723 456.08612061 C38.75371226 467.59387083 54.78176706 477.12958145 71.52990723 484.76190186 C72.57501465 485.24602539 72.57501465 485.24602539 73.64123535 485.7399292 C105.81775374 500.49828314 139.66476512 507.21553067 174.90490723 507.13690186 C175.86934753 507.1360257 176.83378784 507.13514954 177.82745361 507.13424683 C216.41161022 507.01904525 253.44486163 498.03002882 287.52990723 479.76190186 C288.24211426 479.388396 288.95432129 479.01489014 289.68811035 478.63006592 C305.49822538 470.32387688 319.99862581 460.43721804 333.52990723 448.76190186 C334.28658691 448.11608154 335.0432666 447.47026123 335.82287598 446.80487061 C348.9536647 435.30168384 361.30442409 422.93413145 371.52990723 408.76190186 C371.96963867 408.16119873 372.40937012 407.56049561 372.86242676 406.94158936 C410.0233834 355.88032519 427.01505931 290.35927052 418.34240723 227.57440186 C417.82143772 224.28395213 417.20319636 221.02430581 416.52990723 217.76190186 C416.36361816 216.92352783 416.1973291 216.08515381 416.02600098 215.22137451 C407.59125464 173.6958687 388.99774619 136.76497915 361.89367676 104.41668701 C360.65107864 102.90893011 359.46040463 101.35875894 358.27600098 99.80487061 C357.69979004 99.13069092 357.1235791 98.45651123 356.52990723 97.76190186 C355.86990723 97.76190186 355.20990723 97.76190186 354.52990723 97.76190186 C354.28240723 97.18955811 354.03490723 96.61721436 353.77990723 96.02752686 C352.33674523 93.41179574 350.647745 91.6141673 348.52990723 89.51190186 C347.82865723 88.80549561 347.12740723 88.09908936 346.40490723 87.37127686 C344.68879955 85.54479786 344.68879955 85.54479786 342.52990723 85.76190186 C342.52990723 85.10190186 342.52990723 84.44190186 342.52990723 83.76190186 C340.06491168 81.21428076 337.25787181 79.0218333 334.52990723 76.76190186 C333.78225098 76.13928467 333.03459473 75.51666748 332.26428223 74.87518311 C295.22512426 44.64289026 251.14772914 25.18953771 203.52990723 19.76190186 C202.83324951 19.66981445 202.1365918 19.57772705 201.41882324 19.48284912 C176.84318987 16.53313706 150.69861134 17.76820982 126.52990723 22.76190186 Z " fill="#253989" transform="translate(89.4700927734375,-0.76190185546875)"/>
<path d="M0 0 C0.81043762 -0.00696899 1.62087524 -0.01393799 2.45587158 -0.02111816 C5.06308238 -0.03843189 7.67007782 -0.0448402 10.27734375 -0.046875 C11.16956635 -0.04788208 12.06178894 -0.04888916 12.98104858 -0.04992676 C27.25335476 -0.03904128 41.14240231 0.65562159 55.21484375 3.203125 C56.04628906 3.34766113 56.87773437 3.49219727 57.734375 3.64111328 C69.88611601 5.80115701 81.56399304 9.16175066 93.21484375 13.203125 C94.45572754 13.62803223 94.45572754 13.62803223 95.72167969 14.06152344 C125.43554028 24.36855442 153.29893111 40.67249475 176.17578125 62.33984375 C178.07819807 64.24864268 178.07819807 64.24864268 180.21484375 65.203125 C180.21484375 65.863125 180.21484375 66.523125 180.21484375 67.203125 C180.7871875 67.450625 181.35953125 67.698125 181.94921875 67.953125 C184.56494986 69.39628699 186.36257831 71.08528722 188.46484375 73.203125 C189.52445312 74.255 189.52445312 74.255 190.60546875 75.328125 C192.21484375 77.203125 192.21484375 77.203125 192.21484375 79.203125 C193.20484375 79.533125 194.19484375 79.863125 195.21484375 80.203125 C197.98816667 83.17494752 200.44747881 86.40034072 202.95458984 89.59863281 C204.17278008 91.14957164 205.40644895 92.68831409 206.640625 94.2265625 C239.45223412 135.77746783 257.7165383 187.45533843 257.58984375 240.390625 C257.58902802 241.68697876 257.58902802 241.68697876 257.5881958 243.00952148 C257.42987768 298.2156827 239.7677077 351.9138497 205.21484375 395.203125 C204.79477051 395.7388916 204.37469727 396.2746582 203.94189453 396.82666016 C191.88239854 412.13090676 177.65717112 426.58744871 161.85498047 438.01611328 C160.16998997 439.2355869 158.50673429 440.4811955 156.84375 441.73046875 C143.27129418 451.80534758 128.52730972 460.08329321 113.21484375 467.203125 C112.50166992 467.53554199 111.78849609 467.86795898 111.05371094 468.21044922 C91.73572751 477.07973875 71.1826615 482.82246881 50.21484375 486.203125 C49.16820557 486.38045166 48.12156738 486.55777832 47.04321289 486.74047852 C35.94831526 488.44138832 24.98091615 488.56013841 13.77734375 488.515625 C12.80373901 488.51346985 11.83013428 488.5113147 10.82702637 488.50909424 C-48.46007963 488.29849366 -104.17825581 467.39284064 -148.78515625 428.203125 C-149.65914063 427.44128906 -150.533125 426.67945313 -151.43359375 425.89453125 C-161.42910699 417.04992095 -170.55150578 407.7111055 -178.78515625 397.203125 C-179.56375 396.24148438 -180.34234375 395.27984375 -181.14453125 394.2890625 C-188.46422917 385.08116225 -194.74311669 375.28774306 -200.78515625 365.203125 C-201.35363281 364.25663086 -201.35363281 364.25663086 -201.93359375 363.29101562 C-221.74932135 329.73092057 -231.29821781 288.86352454 -232.78515625 250.203125 C-232.81915527 249.46094727 -232.8531543 248.71876953 -232.88818359 247.95410156 C-233.84623736 224.6787447 -230.59109773 200.4747746 -223.78515625 178.203125 C-223.34381348 176.75534668 -223.34381348 176.75534668 -222.89355469 175.27832031 C-219.02506828 162.79133417 -214.68945162 150.86834432 -208.78515625 139.203125 C-208.16138361 137.90362625 -207.54037328 136.6027986 -206.921875 135.30078125 C-192.80966692 105.87532611 -171.78531773 79.17548269 -146.78515625 58.203125 C-145.43164062 57.03330078 -145.43164062 57.03330078 -144.05078125 55.83984375 C-137.28895759 50.06776889 -130.2989506 44.96577016 -122.78515625 40.203125 C-121.52339984 39.39068349 -120.26168296 38.57818057 -119 37.765625 C-83.81202444 15.26309148 -42.15763274 0.24604085 0 0 Z M-116.78515625 88.203125 C-117.60628906 88.8940625 -118.42742187 89.585 -119.2734375 90.296875 C-124.93153236 95.24176463 -130.25577108 100.54680798 -135.59765625 105.828125 C-136.32766846 106.54500488 -137.05768066 107.26188477 -137.80981445 108.00048828 C-141.97925861 112.16369004 -145.44932799 116.35210006 -148.78515625 121.203125 C-149.78311819 122.20515892 -150.7831253 123.20516008 -151.78515625 124.203125 C-169.3842441 148.7927913 -182.95248912 177.18558286 -187.78515625 207.203125 C-187.97464844 208.29109375 -188.16414063 209.3790625 -188.359375 210.5 C-194.64329416 248.47091575 -189.42987207 288.01714735 -173.78515625 323.203125 C-173.31940186 324.27046875 -173.31940186 324.27046875 -172.84423828 325.359375 C-163.78002099 345.98288616 -151.69287766 364.31062643 -136.16015625 380.65234375 C-133.78515625 383.203125 -133.78515625 383.203125 -131.69140625 385.8359375 C-128.78671647 389.4429908 -125.31458929 392.22426033 -121.78515625 395.203125 C-120.90730469 395.96882813 -120.02945313 396.73453125 -119.125 397.5234375 C-78.41813357 432.4776512 -24.98814652 448.606916 28.2331543 444.68823242 C68.1535257 441.32927063 104.32555544 427.31679584 136.21484375 403.203125 C137.21644531 402.47996094 138.21804688 401.75679688 139.25 401.01171875 C157.01132003 387.91193594 170.74549247 371.26237153 183.21484375 353.203125 C183.83230469 352.32269531 184.44976562 351.44226563 185.0859375 350.53515625 C205.33361395 320.37406778 214.85770379 282.34364859 214.60595703 246.36645508 C214.58982633 243.63767729 214.60595039 240.91037519 214.625 238.18164062 C214.64555832 221.97804852 212.39921403 206.51389957 208.33984375 190.828125 C208.07864746 189.80847656 207.81745117 188.78882813 207.54833984 187.73828125 C204.23056188 175.08912654 199.21947302 163.68521411 193.20263672 152.109375 C192.29924957 150.36601197 191.41427788 148.61313803 190.53125 146.859375 C183.16567868 132.58747661 173.66289504 118.50356531 162.21484375 107.203125 C161.13515592 106.10309425 160.05712557 105.00143503 158.98046875 103.8984375 C152.7009448 97.50438527 146.47809512 91.48811506 139.21484375 86.203125 C138.08949219 85.28853516 138.08949219 85.28853516 136.94140625 84.35546875 C107.82325368 61.36964917 72.11930878 47.10566613 35.21484375 43.203125 C34.42247314 43.11699951 33.63010254 43.03087402 32.8137207 42.94213867 C-20.78111244 37.52427949 -75.51615347 53.30724119 -116.78515625 88.203125 Z " fill="#43579A" transform="translate(251.78515625,17.796875)"/>
<path d="M0 0 C37.57429235 -0.58709832 37.57429235 -0.58709832 56.41845703 3.45751953 C58.87544048 3.9738253 61.33385532 4.41810047 63.80859375 4.83984375 C104.82175496 12.12705742 144.52375467 34.93568978 174 64 C174.58072266 64.56702637 175.16144531 65.13405273 175.75976562 65.71826172 C186.48521493 76.20466369 186.48521493 76.20466369 188.51953125 79.34765625 C189.93419486 81.26351952 189.93419486 81.26351952 192.62890625 81.49609375 C193.59699219 81.47675781 194.56507813 81.45742187 195.5625 81.4375 C197.01849609 81.43556641 197.01849609 81.43556641 198.50390625 81.43359375 C199.32761719 81.29050781 200.15132812 81.14742188 201 81 C203.09715785 77.85426323 203.52004559 75.98543749 204.125 72.3125 C204.37636719 70.82169922 204.37636719 70.82169922 204.6328125 69.30078125 C204.75398437 68.54152344 204.87515625 67.78226562 205 67 C207.91562667 71.37344001 208.68432959 75.91672797 210 81 C214.62 81.66 219.24 82.32 224 83 C224 83.66 224 84.32 224 85 C216.575 85.99 216.575 85.99 209 87 C207.16068542 98.03588748 207.13384432 103.57940909 213.45703125 113.05859375 C240.71395326 154.28509438 248.45614449 202.64868378 248 251 C234.8 251 221.6 251 208 251 C207.5978125 244.6578125 207.5978125 244.6578125 207.1875 238.1875 C204.40781735 198.10910903 193.96390044 160.38704843 171 127 C170.67 127 170.34 127 170 127 C167.525 138.385 167.525 138.385 165 150 C164.67 150 164.34 150 164 150 C163.91959473 149.42032471 163.83918945 148.84064941 163.75634766 148.2434082 C163.38576028 145.59880997 163.0054735 142.95569328 162.625 140.3125 C162.49867188 139.40048828 162.37234375 138.48847656 162.2421875 137.54882812 C161.51999102 130.95683787 161.51999102 130.95683787 159 125 C155.84655154 123.5792954 155.84655154 123.5792954 152.0625 122.8125 C151.39532959 122.65233398 150.72815918 122.49216797 150.04077148 122.32714844 C144.40397034 121.0027463 138.71911283 119.90364361 133 119 C135.9590285 117.02731433 137.47935257 116.54920862 140.88671875 115.9296875 C142.2934082 115.66865234 142.2934082 115.66865234 143.72851562 115.40234375 C145.19321289 115.14130859 145.19321289 115.14130859 146.6875 114.875 C147.67556641 114.69324219 148.66363281 114.51148438 149.68164062 114.32421875 C152.12002951 113.8765918 154.5594115 113.43544586 157 113 C157 107.20203525 153.9454403 104.98294449 150 101 C148.06453841 99.20166625 146.09145883 97.47163376 144.07421875 95.765625 C141.9755259 93.97916706 139.96251274 92.11924253 137.9375 90.25 C108.91654291 64.5909255 73.00701771 50.49437838 35 45 C33.88351074 44.82654053 32.76702148 44.65308105 31.61669922 44.47436523 C28.12044639 44.01579771 24.71439291 43.79723848 21.19140625 43.68359375 C20.07193604 43.64548584 18.95246582 43.60737793 17.79907227 43.56811523 C16.40100342 43.52501221 15.00293457 43.48190918 13.5625 43.4375 C6.8490625 43.2209375 6.8490625 43.2209375 0 43 C0 28.81 0 14.62 0 0 Z " fill="#F4B551" transform="translate(150,136)"/>
<path d="M0 0 C8.67849295 6.21151018 14.72874339 14.9393084 16.49609375 25.52734375 C17.57157244 37.93004152 14.25327339 46.59545341 7.30859375 56.71484375 C-1.11880508 65.14224258 -10.78672837 68.07760564 -22.39428711 68.09301758 C-31.88756788 67.80452919 -39.35041857 64.54551951 -46.26171875 57.859375 C-54.27452698 48.51968695 -56.90528186 40.09902883 -56.78125 27.875 C-56.36524859 22.85368719 -54.85953679 18.94322796 -52.50390625 14.52734375 C-52.10300781 13.75648438 -51.70210937 12.985625 -51.2890625 12.19140625 C-46.64600349 4.304935 -38.52903573 -2.31812602 -29.71484375 -5.0703125 C-19.2277667 -6.97873818 -9.19719463 -5.40927048 0 0 Z " fill="#F39765" transform="translate(200.50390625,317.47265625)"/>
<path d="M0 0 C28.27023691 0.04595162 53.1921472 8.23083021 77.5625 22.25 C75.31941912 24.63549871 72.92401133 26.43284091 70.25 28.3125 C61.73643395 34.90186169 57.7496102 44.41740035 56.1640625 54.87890625 C55.91867178 56.99788828 55.73397102 59.12375939 55.5625 61.25 C52.0200536 59.90412431 48.76583785 58.30487126 45.4375 56.5 C40.07654097 53.79298109 34.66185146 51.80650588 28.9375 50 C27.77516846 49.63116699 27.77516846 49.63116699 26.58935547 49.25488281 C17.04841855 46.33808785 7.90421785 44.9454293 -2.0625 44.625 C-3.9132686 44.55865831 -5.76401604 44.49172489 -7.61474609 44.42431641 C-8.52501556 44.3914151 -9.43528503 44.35851379 -10.37313843 44.32461548 C-11.05437775 44.29999237 -11.73561707 44.27536926 -12.4375 44.25 C-12.46214513 38.1444529 -12.48033371 32.03893449 -12.49243164 25.93334961 C-12.49747288 23.85456844 -12.50430574 21.77579084 -12.51293945 19.69702148 C-12.52501422 16.71597414 -12.53073024 13.73497351 -12.53515625 10.75390625 C-12.54289818 9.35078941 -12.54289818 9.35078941 -12.55079651 7.91932678 C-12.55087204 7.05850998 -12.55094757 6.19769318 -12.55102539 5.31079102 C-12.553246 4.54912125 -12.55546661 3.78745148 -12.55775452 3.00270081 C-12.21867066 -1.93942163 -3.64930974 0.00870768 0 0 Z " fill="#F3B255" transform="translate(162.4375,226.75)"/>
<path d="M0 0 C4.42060441 3.5935871 5.95209093 8.02056424 7.9375 13.1875 C8.45799927 14.52228394 8.45799927 14.52228394 8.98901367 15.8840332 C12.14809805 24.13026437 14.89208412 32.42331512 17 41 C17.24556641 41.99749268 17.24556641 41.99749268 17.49609375 43.01513672 C20.47244535 55.68615422 20.23324383 68.01609366 20 81 C6.8 81 -6.4 81 -20 81 C-20.66 75.39 -21.32 69.78 -22 64 C-22.54505242 60.88915497 -23.09613753 57.87457647 -23.8125 54.8125 C-23.98136719 54.07330322 -24.15023438 53.33410645 -24.32421875 52.57250977 C-26.62269856 42.90286349 -30.03207365 33.64797161 -34.30078125 24.671875 C-35 23 -35 23 -35 21 C-34.24976563 20.91363281 -33.49953125 20.82726562 -32.7265625 20.73828125 C-20.7557709 19.0949358 -11.0647277 14.56984261 -3.39453125 4.99609375 C-2.21679245 3.36309457 -1.10090144 1.68575533 0 0 Z " fill="#F39865" transform="translate(296,306)"/>
<path d="M0 0 C2.72248755 2.08647174 3.86981984 3.23823611 4.45410156 6.65722656 C4.42268066 8.13400879 4.42268066 8.13400879 4.390625 9.640625 C4.37128906 11.24550781 4.37128906 11.24550781 4.3515625 12.8828125 C4.31804687 13.99398438 4.28453125 15.10515625 4.25 16.25 C4.23195313 17.37664062 4.21390625 18.50328125 4.1953125 19.6640625 C4.14820222 22.44356896 4.08243361 25.2213534 4 28 C2.89785156 28.26683594 1.79570312 28.53367187 0.66015625 28.80859375 C-3.83400781 30.27147533 -5.0376734 32.43001666 -8 36 C-11.3125 36.875 -11.3125 36.875 -14 37 C-14.33 38.98 -14.66 40.96 -15 43 C-17.25 43.375 -17.25 43.375 -20 43 C-22.68137075 39.95628185 -23.90677711 37.93222894 -24.3125 33.875 C-24.0505205 31.46478857 -23.60271865 29.33553477 -23 27 C-22.96213099 25.33376361 -22.95372155 23.66602403 -23 22 C-21.68 21.34 -20.36 20.68 -19 20 C-19.061875 18.9275 -19.12375 17.855 -19.1875 16.75 C-18.99562206 12.9124411 -18.77526522 11.56969002 -16 9 C-15.01 9 -14.02 9 -13 9 C-12.938125 8.2575 -12.87625 7.515 -12.8125 6.75 C-10.9341617 0.39254729 -6.11192892 -0.88900784 0 0 Z " fill="#F4F5F7" transform="translate(254,257)"/>
<path d="M0 0 C3.45771396 0.72652356 4.99377896 2.65257888 7.0078125 5.421875 C7.0078125 6.741875 7.0078125 8.061875 7.0078125 9.421875 C7.8121875 9.56625 8.6165625 9.710625 9.4453125 9.859375 C12.0078125 10.421875 12.0078125 10.421875 13.0078125 11.421875 C13.1109375 12.515 13.2140625 13.608125 13.3203125 14.734375 C13.63859828 18.45747928 13.63859828 18.45747928 16.0703125 20.359375 C18.0078125 22.421875 18.0078125 22.421875 18.1953125 26.296875 C18.15277344 26.99554688 18.11023438 27.69421875 18.06640625 28.4140625 C17.91158283 30.61226163 17.91158283 30.61226163 18.7578125 33.421875 C19.12297101 37.80377708 17.19668713 40.72051619 15.0078125 44.421875 C13.3578125 44.091875 11.7078125 43.761875 10.0078125 43.421875 C10.0078125 41.441875 10.0078125 39.461875 10.0078125 37.421875 C8.9559375 37.380625 7.9040625 37.339375 6.8203125 37.296875 C1.98327752 36.18673583 1.07937797 34.18454271 -1.9921875 30.421875 C-5.57062511 29.20347594 -5.57062511 29.20347594 -8.9921875 28.421875 C-9.07912792 24.31784137 -9.13255899 20.21404371 -9.1796875 16.109375 C-9.20482422 14.94212891 -9.22996094 13.77488281 -9.25585938 12.57226562 C-9.27036133 10.89487305 -9.27036133 10.89487305 -9.28515625 9.18359375 C-9.3008667 8.15194092 -9.31657715 7.12028809 -9.33276367 6.05737305 C-8.9921875 3.421875 -8.9921875 3.421875 -7.71606445 1.59301758 C-5.26501285 -0.07214239 -2.90382473 -0.1071522 0 0 Z " fill="#F2F4F7" transform="translate(270.9921875,256.578125)"/>
<path d="M0 0 C3.45847422 0.1554405 6.91865461 0.22236328 10.37963867 0.29754639 C17.1304928 0.45685275 23.8746897 0.71166078 30.61987305 1.02996826 C31.11487305 3.50496826 31.11487305 3.50496826 31.61987305 6.02996826 C30.91180511 6.01140778 30.20373718 5.99284729 29.47421265 5.97372437 C22.73851208 5.80992255 16.00486547 5.71564679 9.26730919 5.69574928 C5.80415791 5.68316803 2.34539054 5.64552097 -1.11645508 5.54656982 C-17.39532366 4.25991984 -17.39532366 4.25991984 -31.6862793 10.20916748 C-33.41079348 12.0791321 -34.96962908 14.0154057 -36.52716064 16.0255127 C-39.45155453 19.62315339 -41.39703386 21.43419535 -46.07299805 22.17987061 C-51.32305987 22.56587249 -56.51227281 22.2625232 -61.75512695 21.90496826 C-63.56998714 21.834567 -65.3851139 21.77071962 -67.20043945 21.71356201 C-71.60038604 21.5609802 -75.98722939 21.32061366 -80.38012695 21.02996826 C-80.64825195 21.64871826 -80.91637695 22.26746826 -81.19262695 22.90496826 C-82.38012695 25.02996826 -82.38012695 25.02996826 -85.38012695 27.02996826 C-88.25512695 27.46746826 -88.25512695 27.46746826 -91.38012695 27.02996826 C-94.70287099 24.57402701 -96.15630704 23.10430387 -97.00512695 19.02996826 C-96.14949479 14.92293386 -94.76134686 13.47595713 -91.38012695 11.02996826 C-87.81762695 10.46746826 -87.81762695 10.46746826 -84.38012695 11.02996826 C-81.94262695 12.90496826 -81.94262695 12.90496826 -80.38012695 15.02996826 C-80.38012695 15.68996826 -80.38012695 16.34996826 -80.38012695 17.02996826 C-75.38351125 17.2613181 -70.39782296 17.38812228 -65.39599609 17.42669678 C-63.7032878 17.4534634 -62.01075017 17.5066646 -60.31982422 17.58880615 C-50.35466669 18.30005892 -50.35466669 18.30005892 -41.55496216 14.50289917 C-39.82152871 12.55085449 -38.18771015 10.5456554 -36.56762695 8.49871826 C-27.12655072 -2.97020824 -13.65287662 -0.67978587 0 0 Z " fill="#BA8370" transform="translate(175.380126953125,287.97003173828125)"/>
<path d="M0 0 C3.65706566 0.68569981 5.38806014 1.95056014 8 4.5625 C8 5.2225 8 5.8825 8 6.5625 C9.19159225 6.55139694 10.38318451 6.54029388 11.61088562 6.52885437 C22.83766224 6.42751884 34.06434614 6.35255384 45.29147625 6.30343914 C51.06357056 6.27733983 56.83529583 6.24193483 62.60717773 6.18530273 C68.17686912 6.13099615 73.74620543 6.10108199 79.31614113 6.08811378 C81.44166466 6.07887157 83.56716865 6.06082363 85.69254112 6.03384972 C88.66874638 5.99757806 91.6434825 5.99255395 94.61987305 5.99487305 C95.49956757 5.97689667 96.37926208 5.95892029 97.28561401 5.94039917 C101.70164658 5.9776587 103.4214252 6.09162031 106.95898438 8.97070312 C107.96928711 10.25364258 107.96928711 10.25364258 109 11.5625 C109.67200439 12.23450439 110.34400879 12.90650879 111.03637695 13.59887695 C118.01818848 20.58068848 118.01818848 20.58068848 125 27.5625 C124.67 28.2225 124.34 28.8825 124 29.5625 C121.07657398 29.22282003 119.4149711 28.94679239 117.22448063 26.91824436 C116.67989924 26.22323291 116.13531786 25.52822145 115.57423401 24.81214905 C106.74894215 14.21576297 106.74894215 14.21576297 94.18048 9.68079281 C89.36281409 9.4345359 84.59613751 9.51795226 79.77734375 9.68359375 C77.69415746 9.69288865 75.61092524 9.69462706 73.52772522 9.68922424 C68.10160749 9.6950602 62.68225529 9.80196053 57.25787354 9.93164062 C51.70032636 10.04605861 46.14252512 10.06257326 40.58398438 10.08789062 C29.72025763 10.15152069 18.86115655 10.32217517 8 10.5625 C7.566875 11.7690625 7.566875 11.7690625 7.125 13 C6 15.5625 6 15.5625 4 16.5625 C1.06578994 16.84645581 -1.15098834 17.05798029 -4 16.5625 C-6.99097304 14.02017292 -7.84202557 12.4050303 -8.5625 8.5625 C-7.62098494 3.54108633 -5.02141367 0.94151506 0 0 Z " fill="#F8CB54" transform="translate(110,205.4375)"/>
<path d="M0 0 C0.33 0 0.66 0 1 0 C1.11069824 0.60996826 1.22139648 1.21993652 1.33544922 1.84838867 C1.84324416 4.62910761 2.35904294 7.40828446 2.875 10.1875 C3.04902344 11.14720703 3.22304688 12.10691406 3.40234375 13.09570312 C3.57636719 14.02705078 3.75039063 14.95839844 3.9296875 15.91796875 C4.08679199 16.77156982 4.24389648 17.6251709 4.40576172 18.50463867 C5.04492696 21.18865999 5.75315911 23.53398442 7 26 C9.62700759 27.00524799 11.84031101 27.64775563 14.5625 28.1875 C15.28179687 28.34766602 16.00109375 28.50783203 16.7421875 28.67285156 C18.82469977 29.13344324 20.91149845 29.5675561 23 30 C24.83381523 30.41454061 26.66727351 30.83067218 28.5 31.25 C29.655 31.4975 30.81 31.745 32 32 C32 32.33 32 32.66 32 33 C31.25314941 33.13575439 30.50629883 33.27150879 29.73681641 33.41137695 C26.36366084 34.03205649 22.99444778 34.67201129 19.625 35.3125 C17.8615625 35.63250977 17.8615625 35.63250977 16.0625 35.95898438 C14.38027344 36.28286133 14.38027344 36.28286133 12.6640625 36.61328125 C11.10872803 36.90392456 11.10872803 36.90392456 9.52197266 37.20043945 C6.67176739 37.81471718 6.67176739 37.81471718 5 41 C4.50798286 42.75847976 4.08612055 44.53716262 3.7109375 46.32421875 C3.49179687 47.35224609 3.27265625 48.38027344 3.046875 49.43945312 C2.71429688 51.04723633 2.71429688 51.04723633 2.375 52.6875 C2.14554687 53.77095703 1.91609375 54.85441406 1.6796875 55.97070312 C1.11399205 58.64597121 0.55434386 61.32236079 0 64 C-0.33 64 -0.66 64 -1 64 C-1.12060791 63.13048706 -1.12060791 63.13048706 -1.24365234 62.2434082 C-1.61423972 59.59880997 -1.9945265 56.95569328 -2.375 54.3125 C-2.50132812 53.40048828 -2.62765625 52.48847656 -2.7578125 51.54882812 C-3.48000898 44.95683787 -3.48000898 44.95683787 -6 39 C-9.15344846 37.5792954 -9.15344846 37.5792954 -12.9375 36.8125 C-13.60467041 36.65233398 -14.27184082 36.49216797 -14.95922852 36.32714844 C-20.59602966 35.0027463 -26.28088717 33.90364361 -32 33 C-28.95225179 30.96816786 -27.76236577 30.67223982 -24.25390625 30.28125 C-20.41511903 29.7735416 -16.61800315 29.20234825 -12.82421875 28.421875 C-11.54937622 28.16809082 -11.54937622 28.16809082 -10.2487793 27.90917969 C-7.38192043 26.75011092 -6.4262982 25.38632885 -4.875 22.75 C-4.29174254 20.06809544 -4.29174254 20.06809544 -4 17 C-3.73958825 15.605832 -3.46656068 14.21398434 -3.18359375 12.82421875 C-2.6072743 9.97121508 -2.08637977 7.1179334 -1.61328125 4.24609375 C-1 1 -1 1 0 0 Z " fill="#F9F9F7" transform="translate(315,222)"/>
<path d="M0 0 C14.39627098 -2.37464264 14.39627098 -2.37464264 20.21191406 1.45751953 C24.32225573 5.13595647 27.80075903 9.33698629 31.11401367 13.73657227 C31.73638916 14.48350342 32.35876465 15.23043457 33 16 C33.59640793 16.8899894 33.59640793 16.8899894 34.2048645 17.79795837 C36.91602904 21.26439826 38.92241265 22.80748934 43.32072449 23.59324646 C46.79027522 23.74191479 50.20598853 23.77316553 53.67506409 23.68078423 C56.00559254 23.62013497 58.33266703 23.60475388 60.66394043 23.60084534 C66.44827792 23.58249443 72.23098844 23.4925694 78.01446533 23.3951416 C82.91119381 23.31433003 87.806091 23.26565861 92.70350647 23.26136971 C94.99123812 23.24635633 97.27458382 23.18432102 99.56140137 23.12071228 C109.57011478 23.00258906 109.57011478 23.00258906 113.34057617 25.63265991 C115.1119698 27.66203604 116.54534764 29.73669948 118 32 C118.94211557 33.01583994 119.91487924 34.00449172 120.921875 34.95605469 C122.90235871 36.8578935 124.87473372 38.76605636 126.83984375 40.68359375 C128.4320091 42.23217884 130.02765062 43.77642722 131.63330078 45.31103516 C133.20442994 46.81589191 134.75942679 48.33592082 136.3125 49.859375 C137.23675781 50.75108398 138.16101563 51.64279297 139.11328125 52.56152344 C141 55 141 55 140.79296875 57.32128906 C140.53128906 57.87526367 140.26960937 58.42923828 140 59 C136.37419812 57.73953463 135.0106326 55.74609009 133.06489563 52.53005981 C126.98292828 42.66917094 119.06217763 33.19610895 108 29 C94.09182857 26.34783949 79.32985152 27.29988448 65.27969742 28.27073002 C39.74668439 30.0045616 39.74668439 30.0045616 32.28662109 24.47802734 C27.86882842 20.44070772 24.42034394 15.88217104 21 11 C19.9613853 9.64925054 18.90280479 8.31352016 17.82104492 6.99707031 C17.3697673 6.43860413 16.91848969 5.88013794 16.45353699 5.30474854 C13.77284073 2.89845647 10.53312476 3.00635841 7.125 3.0625 C6.43664062 3.04638672 5.74828125 3.03027344 5.0390625 3.01367188 C3.35973322 2.97868585 1.67962707 2.98504149 0 3 C0 2.01 0 1.02 0 0 Z " fill="#EEC653" transform="translate(108,176)"/>
<path d="M0 0 C3 0.625 3 0.625 4.89135742 3.11987305 C9.7559708 7.04006451 14.66691472 6.35194289 20.73828125 6.33203125 C22.59213692 6.35471321 22.59213692 6.35471321 24.48344421 6.37785339 C27.75678095 6.41350722 31.02929606 6.42788843 34.30279541 6.43188477 C37.6480345 6.44123156 40.99281731 6.47907261 44.33789062 6.51367188 C50.89193428 6.57659704 57.4456783 6.61147293 64 6.625 C64 7.945 64 9.265 64 10.625 C45.52 10.625 27.04 10.625 8 10.625 C7.34 11.945 6.68 13.265 6 14.625 C2.48175489 16.97049674 1.14224306 17.20491403 -3 16.625 C-6.32274404 14.16905875 -7.77618008 12.6993356 -8.625 8.625 C-7.58039389 3.61089068 -5.01410932 1.04460611 0 0 Z " fill="#D2AA64" transform="translate(80,231.375)"/>
<path d="M0 0 C0.11632513 3.41637953 0.18728897 6.83224897 0.25 10.25 C0.30027344 11.70212891 0.30027344 11.70212891 0.3515625 13.18359375 C0.4500566 20.32441614 0.4500566 20.32441614 -1.76171875 23.64453125 C-5.473083 25.89207644 -7.70405421 25.47732731 -12 25 C-14 23.625 -14 23.625 -15 22 C-15 21.34 -15 20.68 -15 20 C-16.65 19.67 -18.3 19.34 -20 19 C-20.33 17.68 -20.66 16.36 -21 15 C-20.01 14.67 -19.02 14.34 -18 14 C-17.731875 13.030625 -17.46375 12.06125 -17.1875 11.0625 C-16.795625 10.051875 -16.40375 9.04125 -16 8 C-14.01751285 7.28293018 -12.01584651 6.61709587 -10 6 C-8.22851628 3.52066803 -8.22851628 3.52066803 -7 1 C-4.53721199 -0.231394 -2.7204945 -0.07159196 0 0 Z " fill="#EEEFF3" transform="translate(258,289)"/>
<path d="M0 0 C3.4375 0.625 3.4375 0.625 5.21777344 3.11987305 C7.25307818 5.921222 7.25307818 5.921222 10.64550781 6.28442383 C11.88139648 6.30013428 13.11728516 6.31584473 14.390625 6.33203125 C15.05084656 6.34715256 15.71106812 6.36227386 16.39129639 6.37785339 C18.4903796 6.420682 20.5880237 6.42956202 22.6875 6.4375 C24.11462146 6.46064864 25.54170879 6.48601477 26.96875 6.51367188 C30.45830563 6.57647146 33.94738132 6.60884791 37.4375 6.625 C37.4375 7.945 37.4375 9.265 37.4375 10.625 C27.5375 10.625 17.6375 10.625 7.4375 10.625 C6.7775 11.945 6.1175 13.265 5.4375 14.625 C1.91925489 16.97049674 0.57974306 17.20491403 -3.5625 16.625 C-6.88524404 14.16905875 -8.33868008 12.6993356 -9.1875 8.625 C-8.06229408 3.2240116 -5.36294659 0.94086782 0 0 Z " fill="#E7AE67" transform="translate(107.5625,260.375)"/>
<path d="M0 0 C3.89696655 0.63768544 5.12623249 1.41917618 7.4375 4.5625 C7.4375 5.2225 7.4375 5.8825 7.4375 6.5625 C8.0672876 6.55202637 8.6970752 6.54155273 9.34594727 6.53076172 C12.23059006 6.4888977 15.11516866 6.46307799 18 6.4375 C18.99064453 6.42074219 19.98128906 6.40398437 21.00195312 6.38671875 C26.56300643 6.34976823 31.10649177 6.80326729 36.4375 8.5625 C38.24325185 8.82292136 40.05669753 9.03805048 41.875 9.1875 C42.73996094 9.26226562 43.60492188 9.33703125 44.49609375 9.4140625 C45.45708984 9.48753906 45.45708984 9.48753906 46.4375 9.5625 C46.4375 9.8925 46.4375 10.2225 46.4375 10.5625 C33.5675 10.5625 20.6975 10.5625 7.4375 10.5625 C6.7775 11.8825 6.1175 13.2025 5.4375 14.5625 C1.91925489 16.90799674 0.57974306 17.14241403 -3.5625 16.5625 C-6.88524404 14.10655875 -8.33868008 12.6368356 -9.1875 8.5625 C-8.06378731 3.1686791 -5.3834601 0.85002002 0 0 Z " fill="#E29867" transform="translate(87.5625,298.4375)"/>
<path d="M0 0 C4.7578125 0.6953125 4.7578125 0.6953125 6.9375 3.4375 C9.39418554 6.48974567 11.26148479 7.0653712 15 8 C15 10.31 15 12.62 15 15 C16.32 14.67 17.64 14.34 19 14 C19.33 15.32 19.66 16.64 20 18 C17.11820494 20.24139616 14.13601137 22.13534459 11 24 C10.67 24.33 10.34 24.66 10 25 C6.67837183 25.3690698 4.69622549 25.42969194 1.81640625 23.65234375 C-1.06353252 19.44701381 -0.42183206 15.21330302 -0.25 10.25 C-0.23195313 9.26644531 -0.21390625 8.28289062 -0.1953125 7.26953125 C-0.14824126 4.84536217 -0.08250742 2.42317941 0 0 Z " fill="#EFF0F5" transform="translate(263,289)"/>
<path d="M0 0 C12.43039163 -0.11582432 24.860655 -0.20468044 37.29147625 -0.25906086 C43.06357056 -0.28516017 48.83529583 -0.32056517 54.60717773 -0.37719727 C60.17686912 -0.43150385 65.74620543 -0.46141801 71.31614113 -0.47438622 C73.44166466 -0.48362843 75.56716865 -0.50167637 77.69254112 -0.52865028 C80.66874638 -0.56492194 83.6434825 -0.56994605 86.61987305 -0.56762695 C87.49956757 -0.58560333 88.37926208 -0.60357971 89.28561401 -0.62210083 C93.70164658 -0.5848413 95.4214252 -0.47087969 98.95898438 2.40820312 C99.96928711 3.69114258 99.96928711 3.69114258 101 5 C101.67200439 5.67200439 102.34400879 6.34400879 103.03637695 7.03637695 C107.69091797 11.69091797 112.34545898 16.34545898 117 21 C116.67 21.66 116.34 22.32 116 23 C113.08455821 22.66337691 111.43364684 22.41712946 109.28541565 20.35072327 C108.50520302 19.30518532 108.50520302 19.30518532 107.70922852 18.23852539 C99.57021435 8.22340349 99.57021435 8.22340349 87.92919922 3.50732422 C81.2536926 2.91087396 74.62310178 3.14952101 67.9375 3.4375 C65.6062316 3.47464329 63.27482548 3.50399503 60.94335938 3.52539062 C55.29084455 3.59395181 49.64761344 3.75801395 44 4 C44.66 3.34 45.32 2.68 46 2 C30.82 1.67 15.64 1.34 0 1 C0 0.67 0 0.34 0 0 Z " fill="#D2AE5D" transform="translate(118,212)"/>
<path d="M0 0 C2.91562667 4.37344001 3.68432959 8.91672797 5 14 C9.62 14.66 14.24 15.32 19 16 C19 16.66 19 17.32 19 18 C14.05 18.66 9.1 19.32 4 20 C3.34 24.95 2.68 29.9 2 35 C1.01 34.67 0.02 34.34 -1 34 C-1.03738281 33.24074219 -1.07476562 32.48148438 -1.11328125 31.69921875 C-1.17902344 30.70535156 -1.24476563 29.71148437 -1.3125 28.6875 C-1.37050781 27.70136719 -1.42851562 26.71523437 -1.48828125 25.69921875 C-2.05488241 22.71050575 -2.52875064 21.72412746 -5 20 C-6.175625 19.855625 -7.35125 19.71125 -8.5625 19.5625 C-9.696875 19.376875 -10.83125 19.19125 -12 19 C-13.21484375 16.96484375 -13.21484375 16.96484375 -14 15 C-12.95199219 14.94392578 -12.95199219 14.94392578 -11.8828125 14.88671875 C-10.97273438 14.82097656 -10.06265625 14.75523437 -9.125 14.6875 C-8.22007812 14.62949219 -7.31515625 14.57148438 -6.3828125 14.51171875 C-3.63778399 14.2117961 -3.63778399 14.2117961 -2 11 C-1.55888435 9.11845117 -1.1890733 7.21937362 -0.875 5.3125 C-0.70742188 4.31863281 -0.53984375 3.32476562 -0.3671875 2.30078125 C-0.24601562 1.54152344 -0.12484375 0.78226563 0 0 Z " fill="#E7E9F1" transform="translate(355,203)"/>
<path d="M0 0 C0.69689941 0.7005249 1.39379883 1.4010498 2.11181641 2.12280273 C4.57050939 4.58176554 7.05926004 7.00800317 9.5562439 9.42799377 C11.89343216 11.69804622 14.21716477 13.98167845 16.54052734 16.26586914 C17.76989521 17.46987741 19.00368021 18.669391 20.24169922 19.86450195 C22.03489405 21.59729194 23.81165846 23.34552929 25.5859375 25.09765625 C26.14413177 25.6300441 26.70232605 26.16243195 27.2774353 26.71095276 C28.80615234 28.23852539 28.80615234 28.23852539 31 31 C30.83837891 33.36889648 30.83837891 33.36889648 30 35 C27.14220983 33.70280076 25.08991464 32.3363174 22.88378906 30.11083984 C22.30348938 29.5303891 21.7231897 28.94993835 21.12530518 28.35189819 C20.51161072 27.72788116 19.89791626 27.10386414 19.265625 26.4609375 C18.62759949 25.82008209 17.98957397 25.17922668 17.33221436 24.51895142 C15.30005931 22.47562179 13.27497782 20.42544018 11.25 18.375 C9.8715547 16.9865214 8.49265364 15.5984951 7.11328125 14.2109375 C3.73688106 10.81251303 0.36680712 7.40792746 -3 4 C-2.01 3.67 -1.02 3.34 0 3 C0 2.01 0 1.02 0 0 Z " fill="#EBB454" transform="translate(218,200)"/>
<path d="M0 0 C19.14 0 38.28 0 58 0 C58 0.99 58 1.98 58 3 C38.86 3 19.72 3 0 3 C0 2.01 0 1.02 0 0 Z " fill="#FAA460" transform="translate(148,290)"/>
<path d="M0 0 C12.87 0 25.74 0 39 0 C39 1.32 39 2.64 39 4 C26.13 4 13.26 4 0 4 C0 2.68 0 1.36 0 0 Z " fill="#E7B660" transform="translate(106,250)"/>
<path d="M0 0 C2.17666626 -0.36076355 2.17666626 -0.36076355 4.90869141 -0.34057617 C6.44005234 -0.34023628 6.44005234 -0.34023628 8.00234985 -0.33988953 C9.10759003 -0.32440567 10.2128302 -0.30892181 11.3515625 -0.29296875 C12.4807309 -0.28872391 13.60989929 -0.28447906 14.77328491 -0.28010559 C18.39076273 -0.26327132 22.00768969 -0.22560975 25.625 -0.1875 C28.07290864 -0.17245934 30.52082598 -0.15876986 32.96875 -0.14648438 C38.9793556 -0.11335227 44.98963846 -0.06310579 51 0 C51 0.99 51 1.98 51 3 C33.51 3 16.02 3 -2 3 C-1.34 2.01 -0.68 1.02 0 0 Z " fill="#F9C359" transform="translate(93,238)"/>
<path d="M0 0 C3.61872485 0.67851091 5.3473474 2.06588578 8 4.5625 C7.566875 5.3978125 7.566875 5.3978125 7.125 6.25 C5.9586747 8.64744645 4.9660119 11.07846939 4 13.5625 C1.125 13.6875 1.125 13.6875 -2 13.5625 C-2.66 12.9025 -3.32 12.2425 -4 11.5625 C-4.99 12.2225 -5.98 12.8825 -7 13.5625 C-8.44430855 10.67388291 -8.37688506 8.76602299 -8 5.5625 C-5.53959272 2.23371368 -4.10389613 0.76948052 0 0 Z " fill="#EEC85E" transform="translate(110,205.4375)"/>
<path d="M0 0 C8.58 0 17.16 0 26 0 C26 0.33 26 0.66 26 1 C18.41 1.33 10.82 1.66 3 2 C3 14.54 3 27.08 3 40 C7.95 40.33 12.9 40.66 18 41 C18 41.33 18 41.66 18 42 C12.06 42.33 6.12 42.66 0 43 C0 28.81 0 14.62 0 0 Z " fill="#E9C54D" transform="translate(150,136)"/>
<path d="M0 0 C3.11198065 1.49836105 6.0534615 3.19933758 9 5 C8.835 6.093125 8.67 7.18625 8.5 8.3125 C7.93281816 11.87525873 7.93281816 11.87525873 8 15 C3.98313013 15.46707789 2.43498188 15.32150834 -0.875 12.875 C-3 10 -3 10 -3.5 6.9375 C-2.96248682 3.77961005 -2.14978703 2.32893595 0 0 Z " fill="#E3BE63" transform="translate(75,233)"/>
<path d="M0 0 C4.85752912 1.43926789 4.85752912 1.43926789 6.375 4 C6.10463853 6.97397616 5.52053974 7.85446026 3.375 10 C2.715 8.35 2.055 6.7 1.375 5 C-0.275 5.33 -1.925 5.66 -3.625 6 C-3.667721 7.66611905 -3.66563832 9.33382885 -3.625 11 C-2.45516556 12.39681568 -2.45516556 12.39681568 0.8125 12.125 C4.21605584 12.2526281 4.21605584 12.2526281 6.375 11 C4.5 14.875 4.5 14.875 3.375 16 C-3.69746377 16.57971014 -3.69746377 16.57971014 -7.125 14.4375 C-9.23506839 11.00863886 -9.24991523 8.95779649 -8.625 5 C-5.93921083 1.09339758 -4.80084596 0 0 0 Z " fill="#F0CC5F" transform="translate(100.625,169)"/>
<path d="M0 0 C0.99 0.33 1.98 0.66 3 1 C2.67 3.31 2.34 5.62 2 8 C3.175625 8.37125 3.175625 8.37125 4.375 8.75 C7.32317108 10.15389099 7.9024777 11.00675737 9 14 C8.01 14.495 8.01 14.495 7 15 C7 15.99 7 16.98 7 18 C8.5413408 19.38956597 8.5413408 19.38956597 10.5 20.5625 C12.46875 21.81640625 12.46875 21.81640625 14 23 C14 23.66 14 24.32 14 25 C8.37436623 24.59816902 5.76488291 23.03380312 2 19 C1.875 15.9375 1.875 15.9375 2 13 C1.34 12.34 0.68 11.68 0 11 C-2 9 -2 9 -2.375 5.9375 C-2 3 -2 3 0 0 Z " fill="#3A3F8E" transform="translate(269,262)"/>
<path d="M0 0 C1.32 0.33 2.64 0.66 4 1 C4.34886026 6.32011893 4.34886026 6.32011893 4 9 C2.125 11 2.125 11 0 12 C-0.66 12 -1.32 12 -2 12 C-1.67 12.845625 -1.34 13.69125 -1 14.5625 C-1 18 -1 18 -2.609375 19.95703125 C-8.23778004 25 -8.23778004 25 -12 25 C-11.8125 22.625 -11.8125 22.625 -11 20 C-8.4375 18.6875 -8.4375 18.6875 -6 18 C-6 16.68 -6 15.36 -6 14 C-6.66 13.67 -7.32 13.34 -8 13 C-7.67 12.01 -7.34 11.02 -7 10 C-5.515 9.38125 -5.515 9.38125 -4 8.75 C-3.01 8.1725 -2.02 7.595 -1 7 C-0.02126462 3.40614946 -0.02126462 3.40614946 0 0 Z " fill="#2A3189" transform="translate(249,263)"/>
<path d="M0 0 C6.24900205 5.16260945 12.06690169 10.74682647 17.83691406 16.43188477 C18.95385315 17.52701632 20.07702376 18.61582516 21.20605469 19.69848633 C22.8498747 21.2756714 24.47337491 22.87143695 26.09375 24.47265625 C26.60192261 24.9529982 27.11009521 25.43334015 27.63366699 25.92823792 C29.02148438 27.32446289 29.02148438 27.32446289 31 30 C30.80664062 32.84545898 30.80664062 32.84545898 30 35 C29.46012451 34.29423828 28.92024902 33.58847656 28.36401367 32.86132812 C25.81370341 29.77451244 23.05034607 26.99598968 20.17578125 24.21875 C19.05359786 23.11893692 17.93186629 22.01866268 16.81054688 20.91796875 C15.05716702 19.20176912 13.30097706 17.48886205 11.53686523 15.78369141 C9.82399883 14.12531123 8.12410639 12.45450152 6.42578125 10.78125 C5.89664627 10.27589722 5.36751129 9.77054443 4.82234192 9.24987793 C1.85626421 6.30527511 0.31750588 4.22056376 0 0 Z " fill="#2E3F88" transform="translate(220,199)"/>
<path d="M0 0 C2.5 0.1875 2.5 0.1875 5 1 C5.66 1.99 6.32 2.98 7 4 C7.66 3.34 8.32 2.68 9 2 C10.87939453 1.77294922 10.87939453 1.77294922 13.1328125 1.8046875 C14.34130859 1.81435547 14.34130859 1.81435547 15.57421875 1.82421875 C16.83685547 1.84935547 16.83685547 1.84935547 18.125 1.875 C19.39923828 1.88853516 19.39923828 1.88853516 20.69921875 1.90234375 C22.79959884 1.92594353 24.89983444 1.96181517 27 2 C27 2.33 27 2.66 27 3 C22.38 3.33 17.76 3.66 13 4 C13 4.33 13 4.66 13 5 C16.96 5.33 20.92 5.66 25 6 C25 6.33 25 6.66 25 7 C23.17662109 7.09087891 23.17662109 7.09087891 21.31640625 7.18359375 C19.73175772 7.26798332 18.14712298 7.3526321 16.5625 7.4375 C15.76005859 7.47681641 14.95761719 7.51613281 14.13085938 7.55664062 C10.24760439 7.4054296 10.24760439 7.4054296 7 9 C3.5625 9.1875 3.5625 9.1875 0 9 C-2 7 -2 7 -2.25 4.5 C-2 2 -2 2 0 0 Z " fill="#B59C61" transform="translate(98,173)"/>
<path d="M0 0 C3.4788339 0.12397009 6.95873031 0.17781455 10.43914795 0.23803711 C17.23731314 0.3657725 24.0312805 0.56986189 30.8258667 0.82397461 C30.8258667 1.15397461 30.8258667 1.48397461 30.8258667 1.82397461 C2.6108667 2.31897461 2.6108667 2.31897461 -26.1741333 2.82397461 C-26.5041333 3.48397461 -26.8341333 4.14397461 -27.1741333 4.82397461 C-28.1641333 4.82397461 -29.1541333 4.82397461 -30.1741333 4.82397461 C-30.4010083 5.38084961 -30.6278833 5.93772461 -30.8616333 6.51147461 C-32.53310097 9.45644145 -34.72689682 11.50554005 -37.1741333 13.82397461 C-38.1641333 13.49397461 -39.1541333 13.16397461 -40.1741333 12.82397461 C-30.85513954 -2.68436961 -16.25244882 -0.64099316 0 0 Z " fill="#1C1F85" transform="translate(176.17413330078125,293.176025390625)"/>
<path d="M0 0 C0 1.32 0 2.64 0 4 C-3.72915017 4.02912348 -7.4582709 4.04684037 -11.1875 4.0625 C-12.77014648 4.07506836 -12.77014648 4.07506836 -14.38476562 4.08789062 C-15.91713867 4.09272461 -15.91713867 4.09272461 -17.48046875 4.09765625 C-18.41785889 4.10289307 -19.35524902 4.10812988 -20.32104492 4.11352539 C-22.98049477 4.00082657 -25.40920573 3.59376649 -28 3 C-27.67 2.34 -27.34 1.68 -27 1 C-18.16198742 -0.49414567 -8.93279453 -0.12053246 0 0 Z " fill="#F2B568" transform="translate(145,267)"/>
<path d="M0 0 C0.721875 0.103125 1.44375 0.20625 2.1875 0.3125 C2.5175 1.3025 2.8475 2.2925 3.1875 3.3125 C2.383125 3.539375 1.57875 3.76625 0.75 4 C-0.095625 4.433125 -0.94125 4.86625 -1.8125 5.3125 C-2.70636164 7.86025306 -2.70636164 7.86025306 -2.8125 10.3125 C-2.008125 10.56 -1.20375 10.8075 -0.375 11.0625 C2.1875 12.3125 2.1875 12.3125 3 14.4375 C3.061875 15.05625 3.12375 15.675 3.1875 16.3125 C-0.82936987 16.77957789 -2.37751812 16.63400834 -5.6875 14.1875 C-7.8125 11.3125 -7.8125 11.3125 -8.4375 8.3125 C-7.44304738 3.5391274 -4.96626208 0.5518069 0 0 Z " fill="#DB9A6E" transform="translate(86.8125,298.6875)"/>
<path d="M0 0 C7.12937749 4.29233943 12.7879997 9.41514536 18.5625 15.375 C19.38041016 16.20644531 20.19832031 17.03789062 21.04101562 17.89453125 C23.03444911 19.92293725 25.02046985 21.95803925 27 24 C20.1366816 24 14.20765589 16.46406272 9.609375 11.8828125 C8.91328125 11.17898437 8.2171875 10.47515625 7.5 9.75 C6.77296875 9.03070313 6.0459375 8.31140625 5.296875 7.5703125 C4.61109375 6.88195312 3.9253125 6.19359375 3.21875 5.484375 C2.59935547 4.86272461 1.97996094 4.24107422 1.34179688 3.60058594 C0 2 0 2 0 0 Z " fill="#F6BB5C" transform="translate(219,204)"/>
<path d="M0 0 C2.4375 0.375 2.4375 0.375 5 1 C5.33 1.66 5.66 2.32 6 3 C6.99 3.33 7.98 3.66 9 4 C9 4.66 9 5.32 9 6 C10.10859375 5.97679687 11.2171875 5.95359375 12.359375 5.9296875 C13.82290992 5.91092423 15.28645214 5.89272463 16.75 5.875 C17.84441406 5.84986328 17.84441406 5.84986328 18.9609375 5.82421875 C25.91565506 5.76099404 25.91565506 5.76099404 29 8 C30.03013277 9.64821244 31.03114628 11.31503702 32 13 C32.99 13.66 33.98 14.32 35 15 C35 15.66 35 16.32 35 17 C35.99 17.33 36.98 17.66 38 18 C37.505 19.485 37.505 19.485 37 21 C35.95203782 20.15356901 34.91207308 19.29723808 33.875 18.4375 C33.21886719 17.89609375 32.56273437 17.3546875 31.88671875 16.796875 C30.02447848 15.02331284 29.00830011 13.36929949 27.6875 11.1875 C26.00059063 9.06032582 24.75775772 8.12610218 22.06054688 7.67724609 C18.87645618 7.44441461 15.72778364 7.35419249 12.53588867 7.43823242 C8.15834123 7.48105475 6.55628116 7.44531504 3.00390625 4.6015625 C1 2 1 2 0 0 Z " fill="#284391" transform="translate(101,168)"/>
<path d="M0 0 C8.94460069 -0.09262324 17.88903666 -0.16372555 26.83401203 -0.20724869 C30.98741388 -0.22813623 35.14048798 -0.25647451 39.29370117 -0.30175781 C43.3007702 -0.34517495 47.30752373 -0.36912831 51.3148098 -0.37950897 C52.84468746 -0.38690787 54.37454758 -0.40135619 55.90429115 -0.42292023 C58.04505539 -0.45190113 60.18451106 -0.45595851 62.32543945 -0.45410156 C63.54455521 -0.46298401 64.76367096 -0.47186646 66.01972961 -0.48101807 C69 0 69 0 70.91716003 2.02838135 C71.27449722 2.6790155 71.63183441 3.32964966 72 4 C70.97033867 3.51486435 70.97033867 3.51486435 69.9198761 3.01992798 C66.55111848 1.84320334 63.84842153 1.72145109 60.28198242 1.68115234 C59.62776306 1.67110672 58.9735437 1.6610611 58.29949951 1.65071106 C56.15149765 1.6199855 54.00361981 1.60287404 51.85546875 1.5859375 C50.3604476 1.56721725 48.86543692 1.54764319 47.37043762 1.5272522 C43.44636214 1.47601537 39.52225244 1.43634465 35.59802246 1.39910889 C31.58935132 1.35901609 27.58082151 1.30794787 23.57226562 1.2578125 C15.71494045 1.16115333 7.85754508 1.07671677 0 1 C0 0.67 0 0.34 0 0 Z " fill="#334B8C" transform="translate(147,204)"/>
<path d="M0 0 C3.56764821 0.57619097 5.25159497 1.86969484 7.75 4.4375 C8.67039063 5.36369141 8.67039063 5.36369141 9.609375 6.30859375 C11 8 11 8 11 10 C11.66 10 12.32 10 13 10 C13 10.66 13 11.32 13 12 C13.61875 12.2475 14.2375 12.495 14.875 12.75 C17.35068687 14.20628639 17.95125002 15.37812506 19 18 C16 18 16 18 14.19067383 16.56298828 C13.53607178 15.90540527 12.88146973 15.24782227 12.20703125 14.5703125 C11.49482422 13.85746094 10.78261719 13.14460937 10.04882812 12.41015625 C9.31083984 11.65605469 8.57285156 10.90195313 7.8125 10.125 C7.06291016 9.37863281 6.31332031 8.63226563 5.54101562 7.86328125 C0 2.26680505 0 2.26680505 0 0 Z " fill="#334287" transform="translate(217,214)"/>
<path d="M0 0 C3.30118794 0.5805321 4.91134076 1.54868099 7.234375 3.94140625 C8.09482422 4.81635742 8.09482422 4.81635742 8.97265625 5.70898438 C9.55917969 6.32064453 10.14570313 6.93230469 10.75 7.5625 C11.35199219 8.17802734 11.95398438 8.79355469 12.57421875 9.42773438 C14.05634381 10.94514813 15.5290967 12.47170596 17 14 C16.67 14.99 16.34 15.98 16 17 C10.37780154 12.33477149 4.83989204 7.48740595 0 2 C0 1.34 0 0.68 0 0 Z " fill="#EDB253" transform="translate(214,217)"/>
<path d="M0 0 C0.84755859 0.00322266 1.69511719 0.00644531 2.56835938 0.00976562 C3.8899707 0.02233398 3.8899707 0.02233398 5.23828125 0.03515625 C6.57729492 0.04192383 6.57729492 0.04192383 7.94335938 0.04882812 C10.14590112 0.06060642 12.34830724 0.07705461 14.55078125 0.09765625 C14.55078125 1.08765625 14.55078125 2.07765625 14.55078125 3.09765625 C7.62078125 3.09765625 0.69078125 3.09765625 -6.44921875 3.09765625 C-6.77921875 2.43765625 -7.10921875 1.77765625 -7.44921875 1.09765625 C-4.6251011 0.1562837 -2.92003843 -0.01959757 0 0 Z " fill="#FACA6A" transform="translate(129.44921875,237.90234375)"/>
<path d="M0 0 C0.99 0 1.98 0 3 0 C3.309375 0.804375 3.61875 1.60875 3.9375 2.4375 C4.76335345 4.89080405 4.76335345 4.89080405 6 6 C10.65088715 6.30523962 10.65088715 6.30523962 15 5 C13.125 8.875 13.125 8.875 12 10 C4.89585666 10.58230683 4.89585666 10.58230683 1.5 8.375 C-0.37956836 5.39901677 -0.31424507 3.45669582 0 0 Z " fill="#EBC550" transform="translate(92,175)"/>
<path d="M0 0 C6.27 0 12.54 0 19 0 C19 0.99 19 1.98 19 3 C11.74 3 4.48 3 -3 3 C-2.01 2.67 -1.02 2.34 0 2 C0 1.34 0 0.68 0 0 Z " fill="#FBAE70" transform="translate(187,290)"/>
<path d="M0 0 C0.33 0.66 0.66 1.32 1 2 C0.175 2.53625 -0.65 3.0725 -1.5 3.625 C-7.22546162 7.44197441 -12.65732906 11.66810464 -18 16 C-19.66666667 17.33333333 -21.33333333 18.66666667 -23 20 C-23.66 19.67 -24.32 19.34 -25 19 C-17.23652304 11.39039376 -9.49215734 5.34316599 0 0 Z " fill="#37518A" transform="translate(49,10)"/>
<path d="M0 0 C-0.57344937 2.86724686 -0.8614515 3.8614515 -3 6 C-9.27248673 6.7073451 -15.07943875 6.10508844 -21 4 C-21 3.67 -21 3.34 -21 3 C-19.96359375 2.95101563 -18.9271875 2.90203125 -17.859375 2.8515625 C-16.48955792 2.77650403 -15.11976752 2.70095753 -13.75 2.625 C-13.06808594 2.5940625 -12.38617188 2.563125 -11.68359375 2.53125 C-7.50124189 2.28761785 -3.86242557 0 0 0 Z " fill="#F5AB72" transform="translate(138,302)"/>
<path d="M0 0 C2.31 0.33 4.62 0.66 7 1 C7.103125 1.94875 7.20625 2.8975 7.3125 3.875 C7.68539295 7.29107501 7.68539295 7.29107501 11 9 C10.67 9.99 10.34 10.98 10 12 C7.03 11.505 7.03 11.505 4 11 C3.67 8.69 3.34 6.38 3 4 C1.35 3.67 -0.3 3.34 -2 3 C-1.34 2.01 -0.68 1.02 0 0 Z " fill="#23247A" transform="translate(274,293)"/>
<path d="M0 0 C4.45009461 -0.3358562 4.45009461 -0.3358562 6.81640625 1.109375 C7.68072266 1.92148438 7.68072266 1.92148438 8.5625 2.75 C9.23410156 3.37519531 9.90570313 4.00039062 10.59765625 4.64453125 C15.43841106 9.39083231 20.24203647 14.17066701 25 19 C24.67 19.66 24.34 20.32 24 21 C22.68 20.67 21.36 20.34 20 20 C19.8875293 19.40147217 19.77505859 18.80294434 19.65917969 18.1862793 C18.58246396 14.61517212 15.84169114 12.37025233 13.25 9.8125 C12.7240625 9.26658203 12.198125 8.72066406 11.65625 8.15820312 C8.47866164 4.98454742 6.54311837 3.65922872 2 3 C1.34 2.01 0.68 1.02 0 0 Z " fill="#F8BA4E" transform="translate(210,214)"/>
<path d="M0 0 C3.45669582 -0.31424507 5.39901677 -0.37956836 8.375 1.5 C10.73613198 5.13251074 10.2854378 7.71843297 10 12 C6.0747975 8.29909479 3.05419844 4.45040344 0 0 Z " fill="#2E3A86" transform="translate(344,222)"/>
<path d="M0 0 C2.5 0.125 2.5 0.125 3.5 1.125 C3.625 4.125 3.625 4.125 3.5 7.125 C2.5 8.125 2.5 8.125 0.0625 8.3125 C-2.5 8.125 -2.5 8.125 -4.5 6.125 C-3.77607362 0.18880368 -3.77607362 0.18880368 0 0 Z " fill="#2D2E88" transform="translate(87.5,302.875)"/>
<path d="M0 0 C4.55555556 0.55555556 4.55555556 0.55555556 6 2 C6.125 4.5 6.125 4.5 6 7 C5 8 5 8 2 8.125 C-1 8 -1 8 -2 7 C-2.1875 4.5625 -2.1875 4.5625 -2 2 C-1.34 1.34 -0.68 0.68 0 0 Z " fill="#2E3287" transform="translate(105,265)"/>
<path d="M0 0 C4.55555556 0.55555556 4.55555556 0.55555556 6 2 C6.125 4.5 6.125 4.5 6 7 C5 8 5 8 2 8.125 C-1 8 -1 8 -2 7 C-2.1875 4.5625 -2.1875 4.5625 -2 2 C-1.34 1.34 -0.68 0.68 0 0 Z " fill="#2F4898" transform="translate(108,210)"/>
<path d="M0 0 C2.0625 1.6875 2.0625 1.6875 3 4 C2.1875 6.75 2.1875 6.75 1 9 C0.01 7.68 -0.98 6.36 -2 5 C-3.98 5.33 -5.96 5.66 -8 6 C-8.66 4.68 -9.32 3.36 -10 2 C-6.29584707 -0.46943529 -4.37855495 -0.46913089 0 0 Z " fill="#DBA364" transform="translate(111,261)"/>
<path d="M0 0 C2.625 0.375 2.625 0.375 5 1 C5.625 3.375 5.625 3.375 6 6 C4 8 4 8 1.4375 8.1875 C-1 8 -1 8 -2 7 C-2.1875 4.5625 -2.1875 4.5625 -2 2 C-1.34 1.34 -0.68 0.68 0 0 Z " fill="#303792" transform="translate(78,236)"/>
<path d="M0 0 C2.625 0.375 2.625 0.375 5 1 C6.125 5.75 6.125 5.75 5 8 C3.00045254 8.04254356 0.99958364 8.04080783 -1 8 C-2 7 -2 7 -2.1875 4.5625 C-2 2 -2 2 0 0 Z " fill="#3A5095" transform="translate(98,173)"/>
<path d="M0 0 C0.886875 0.12375 1.77375 0.2475 2.6875 0.375 C2.6875 1.035 2.6875 1.695 2.6875 2.375 C1.264375 2.99375 1.264375 2.99375 -0.1875 3.625 C-3.69586811 5.2052645 -3.69586811 5.2052645 -5.3125 9.375 C-8.2825 9.045 -11.2525 8.715 -14.3125 8.375 C-14.3125 8.045 -14.3125 7.715 -14.3125 7.375 C-12.9821875 7.313125 -12.9821875 7.313125 -11.625 7.25 C-8.0365594 6.64907201 -8.0365594 6.64907201 -5.8125 3.3125 C-3.3125 0.375 -3.3125 0.375 0 0 Z " fill="#2B3287" transform="translate(254.3125,285.625)"/>
<path d="M0 0 C2.475 0.99 2.475 0.99 5 2 C5 5.51716303 4.17554415 6.37121748 2 9 C1.01 8.67 0.02 8.34 -1 8 C-2.1875 5.4375 -2.1875 5.4375 -3 3 C-2.01 2.01 -1.02 1.02 0 0 Z " fill="#F1F2F6" transform="translate(288,234)"/>
<path d="M0 0 C3.63 0 7.26 0 11 0 C11 1.32 11 2.64 11 4 C7.37 4 3.74 4 0 4 C0 2.68 0 1.36 0 0 Z " fill="#D7BE6C" transform="translate(133,225)"/>
<path d="M0 0 C0 4.2650016 -2.44473414 6.50032379 -5 9.6875 C-5.71542969 10.59725586 -5.71542969 10.59725586 -6.4453125 11.52539062 C-7.62376394 13.02202396 -8.81105188 14.51169173 -10 16 C-11 13 -11 13 -9.9609375 10.87890625 C-7.01549993 6.57682625 -4.38748484 2.96800445 0 0 Z " fill="#F2AE6A" transform="translate(159,319)"/>
<path d="M0 0 C0.33 0.99 0.66 1.98 1 3 C0.278125 3.226875 -0.44375 3.45375 -1.1875 3.6875 C-4.53209313 5.24831013 -6.51603959 7.3031287 -9 10 C-9.32523926 6.42236811 -9.42956587 4.60457419 -7.3125 1.625 C-4.61209763 -0.27258004 -3.22939919 -0.35882213 0 0 Z " fill="#EFAF77" transform="translate(89,299)"/>
<path d="M0 0 C1.95825873 -0.02694851 3.91662226 -0.04637218 5.875 -0.0625 C6.96554688 -0.07410156 8.05609375 -0.08570313 9.1796875 -0.09765625 C12 0 12 0 14 1 C14 1.66 14 2.32 14 3 C9.38 3 4.76 3 0 3 C0 2.01 0 1.02 0 0 Z " fill="#FBB06D" transform="translate(148,290)"/>
<path d="M0 0 C0.99 0.33 1.98 0.66 3 1 C2.67 4.63 2.34 8.26 2 12 C0.68 11.01 -0.64 10.02 -2 9 C-2.51020728 4.91834173 -2.31361802 3.47042703 0 0 Z " fill="#465099" transform="translate(269,262)"/>
<path d="M0 0 C6.40629424 -0.20852314 11.92972642 -0.1583195 18 2 C17.67 2.66 17.34 3.32 17 4 C16.30519531 3.83628906 15.61039063 3.67257813 14.89453125 3.50390625 C11.7647184 2.95904004 8.86201917 2.90261517 5.6875 2.9375 C4.08455078 2.95103516 4.08455078 2.95103516 2.44921875 2.96484375 C1.64097656 2.97644531 0.83273438 2.98804688 0 3 C0 2.01 0 1.02 0 0 Z " fill="#F4C34D" transform="translate(108,176)"/>
<path d="M0 0 C4.67692308 1.47692308 4.67692308 1.47692308 6.3125 4.125 C6.539375 4.74375 6.76625 5.3625 7 6 C3.25 9 3.25 9 1 9 C0.67 6.03 0.34 3.06 0 0 Z " fill="#283082" transform="translate(271,270)"/>
<path d="M0 0 C0.66 0.66 1.32 1.32 2 2 C1.67 2.66 1.34 3.32 1 4 C0.01 4 -0.98 4 -2 4 C-2.226875 4.556875 -2.45375 5.11375 -2.6875 5.6875 C-4.35896766 8.63246684 -6.55276352 10.68156544 -9 13 C-9.99 12.67 -10.98 12.34 -12 12 C-8.04 8.04 -4.08 4.08 0 0 Z " fill="#2A2680" transform="translate(148,294)"/>
<path d="M0 0 C1.32 0.33 2.64 0.66 4 1 C4 3.64 4 6.28 4 9 C2.68 9 1.36 9 0 9 C0 6.03 0 3.06 0 0 Z " fill="#2C3187" transform="translate(249,263)"/>
<path d="M0 0 C3.93774177 -0.36630156 5.56539771 -0.30233203 8.875 2 C9.926875 2.99 9.926875 2.99 11 4 C10.566875 4.8353125 10.566875 4.8353125 10.125 5.6875 C8.9586747 8.08494645 7.9660119 10.51596939 7 13 C5.02 13 3.04 13 1 13 C1 12.67 1 12.34 1 12 C2.65 11.67 4.3 11.34 6 11 C6.33 8.03 6.66 5.06 7 2 C4.69 1.67 2.38 1.34 0 1 C0 0.67 0 0.34 0 0 Z " fill="#D4B361" transform="translate(107,206)"/>
<path d="M0 0 C2.12472576 -0.05386629 4.24983652 -0.09273071 6.375 -0.125 C7.55835938 -0.14820313 8.74171875 -0.17140625 9.9609375 -0.1953125 C13 0 13 0 15 2 C10.05 2.66 5.1 3.32 0 4 C0 2.68 0 1.36 0 0 Z " fill="#E0A472" transform="translate(173,312)"/>
<path d="M0 0 C3.35044034 1.11681345 4.14916343 2.0436896 6.375 4.6875 C7.28572266 5.76064453 7.28572266 5.76064453 8.21484375 6.85546875 C9.09849609 7.91701172 9.09849609 7.91701172 10 9 C10.51691406 9.61488281 11.03382813 10.22976562 11.56640625 10.86328125 C12.7171727 12.23698821 13.85958928 13.61768397 15 15 C11.56247993 13.4722133 8.81046312 11.49818944 6 9 C6 8.34 6 7.68 6 7 C5.34 7 4.68 7 4 7 C1.875 5.1875 1.875 5.1875 0 3 C0 2.01 0 1.02 0 0 Z " fill="#2C4693" transform="translate(126,184)"/>
<path d="M0 0 C1.31896465 0.92838287 2.62998689 1.86805732 3.9375 2.8125 C4.66839844 3.33457031 5.39929688 3.85664063 6.15234375 4.39453125 C8 6 8 6 9 9 C4.16743695 8.58578031 2.17320782 6.53586014 -1 3 C-0.67 2.01 -0.34 1.02 0 0 Z " fill="#263F89" transform="translate(143,191)"/>
<path d="M0 0 C0.721875 0.103125 1.44375 0.20625 2.1875 0.3125 C2.5175 0.9725 2.8475 1.6325 3.1875 2.3125 C1.2075 2.3125 -0.7725 2.3125 -2.8125 2.3125 C-2.4825 3.3025 -2.1525 4.2925 -1.8125 5.3125 C-2.75 8 -2.75 8 -3.8125 10.3125 C-3.915625 9.673125 -4.01875 9.03375 -4.125 8.375 C-4.351875 7.694375 -4.57875 7.01375 -4.8125 6.3125 C-5.8025 5.9825 -6.7925 5.6525 -7.8125 5.3125 C-3.50480769 0.38942308 -3.50480769 0.38942308 0 0 Z " fill="#DCC163" transform="translate(99.8125,168.6875)"/>
<path d="M0 0 C0.66 0 1.32 0 2 0 C0.46356148 3.68069887 -1.78150945 5.98775204 -4.625 8.75 C-5.85089844 9.94882812 -5.85089844 9.94882812 -7.1015625 11.171875 C-7.72804687 11.77515625 -8.35453125 12.3784375 -9 13 C-9.33 12.01 -9.66 11.02 -10 10 C-8.71034824 8.62437146 -7.37310707 7.29233607 -6 6 C-5.34 6 -4.68 6 -4 6 C-3.34 4.68 -2.68 3.36 -2 2 C-1.34 2 -0.68 2 0 2 C0 1.34 0 0.68 0 0 Z " fill="#2F2984" transform="translate(144,289)"/>
<path d="M0 0 C1.26953125 2.0546875 1.26953125 2.0546875 2 4 C1.34 4.66 0.68 5.32 0 6 C-0.350625 5.34 -0.70125 4.68 -1.0625 4 C-2.94523677 1.62063291 -2.94523677 1.62063291 -6.5 1.6875 C-9.96935792 1.86167123 -9.96935792 1.86167123 -13 3 C-13.33 2.34 -13.66 1.68 -14 1 C-9.56765703 -1.43063969 -4.76712441 -1.62962603 0 0 Z " fill="#2A2A83" transform="translate(114,260)"/>
<path d="M0 0 C0 3 0 3 -1.8984375 5.04296875 C-2.71570313 5.75066406 -3.53296875 6.45835937 -4.375 7.1875 C-5.59316406 8.26064453 -5.59316406 8.26064453 -6.8359375 9.35546875 C-9 11 -9 11 -11 11 C-9.52202738 7.32943063 -7.52384523 5.58914217 -4.375 3.25 C-3.55773437 2.63640625 -2.74046875 2.0228125 -1.8984375 1.390625 C-0.95871094 0.70226562 -0.95871094 0.70226562 0 0 Z " fill="#313986" transform="translate(237,251)"/>
<path d="M0 0 C1.67542976 0.28604898 3.34385343 0.61781233 5 1 C4.67 2.65 4.34 4.3 4 6 C2.35 6 0.7 6 -1 6 C-1.042721 4.33388095 -1.04063832 2.66617115 -1 1 C-0.67 0.67 -0.34 0.34 0 0 Z " fill="#F8F4EE" transform="translate(291,222)"/>
<path d="M0 0 C1.81325551 0.11351517 3.62563357 0.24112961 5.4375 0.375 C6.95150391 0.47941406 6.95150391 0.47941406 8.49609375 0.5859375 C9.73552734 0.79089844 9.73552734 0.79089844 11 1 C11.33 1.66 11.66 2.32 12 3 C8.0186217 4.3271261 4.14954773 4.06915913 0 4 C0 2.68 0 1.36 0 0 Z " fill="#F9CF5D" transform="translate(115,212)"/>
<path d="M0 0 C1.65 0.33 3.3 0.66 5 1 C5 1.99 5 2.98 5 4 C2.69 5.32 0.38 6.64 -2 8 C-2.66 7.34 -3.32 6.68 -4 6 C-3.34 5.38125 -2.68 4.7625 -2 4.125 C0.2284549 2.24362573 0.2284549 2.24362573 0 0 Z " fill="#EAB764" transform="translate(234,247)"/>
<path d="M0 0 C2.0625 0.4375 2.0625 0.4375 4 1 C3.67 2.65 3.34 4.3 3 6 C1.35 5.67 -0.3 5.34 -2 5 C-1.125 1.125 -1.125 1.125 0 0 Z " fill="#E1E1EF" transform="translate(297,274)"/>
<path d="M0 0 C1.9375 0.6875 1.9375 0.6875 4 2 C4.75 4.625 4.75 4.625 5 7 C4.34 7 3.68 7 3 7 C2.67 7.99 2.34 8.98 2 10 C1.9175 9.21625 1.835 8.4325 1.75 7.625 C1.27193661 4.85250896 1.27193661 4.85250896 -1.0625 3.6875 C-1.701875 3.460625 -2.34125 3.23375 -3 3 C-2.01 2.67 -1.02 2.34 0 2 C0 1.34 0 0.68 0 0 Z " fill="#E0986E" transform="translate(89,299)"/>
<path d="M0 0 C1.98 1.65 3.96 3.3 6 5 C5.34 6.32 4.68 7.64 4 9 C2.35 8.01 0.7 7.02 -1 6 C-0.67 4.02 -0.34 2.04 0 0 Z " fill="#334294" transform="translate(290,228)"/>
<path d="M0 0 C0.33 0 0.66 0 1 0 C1.33 3.3 1.66 6.6 2 10 C0.02 10.99 0.02 10.99 -2 12 C-1.85962479 10.18706911 -1.71255111 8.3746557 -1.5625 6.5625 C-1.48128906 5.55316406 -1.40007812 4.54382813 -1.31640625 3.50390625 C-1 1 -1 1 0 0 Z " fill="#FAECD1" transform="translate(315,222)"/>
<path d="M0 0 C1.12894876 0.93274109 2.25300876 1.87140122 3.375 2.8125 C4.00148437 3.33457031 4.62796875 3.85664063 5.2734375 4.39453125 C7 6 7 6 9 9 C8.01 9.33 7.02 9.66 6 10 C2.46413986 6.82679218 0.41421969 4.83256305 0 0 Z " fill="#243B86" transform="translate(220,199)"/>
<path d="M0 0 C0.9075 0.103125 1.815 0.20625 2.75 0.3125 C1.76 0.9725 0.77 1.6325 -0.25 2.3125 C-3.54881816 5.12619784 -4.76862212 6.9800991 -5.25 11.3125 C-5.91 11.3125 -6.57 11.3125 -7.25 11.3125 C-7.5934538 7.62037163 -7.471621 5.70459869 -5.625 2.4375 C-3.25 0.3125 -3.25 0.3125 0 0 Z " fill="#3C5194" transform="translate(97.25,167.6875)"/>
<path d="M0 0 C2.31 1.98 4.62 3.96 7 6 C6.67 6.99 6.34 7.98 6 9 C3.69 7.02 1.38 5.04 -1 3 C-0.67 2.01 -0.34 1.02 0 0 Z " fill="#E6AF5E" transform="translate(224,225)"/>
<path d="M0 0 C2.9375 0.75 2.9375 0.75 6 2 C6.875 4.125 6.875 4.125 7 6 C5.68 6 4.36 6 3 6 C0 2.78571429 0 2.78571429 0 0 Z " fill="#35368D" transform="translate(267,288)"/>
<path d="M0 0 C2.43990804 2.174108 3.57580792 3.97833646 4.625 7.0625 C5.33977554 9.12612616 6.02242128 11.04484255 7 13 C6.34 13.66 5.68 14.32 5 15 C4.16013916 13.06532058 3.32831973 11.12714871 2.5 9.1875 C2.0359375 8.10855469 1.571875 7.02960938 1.09375 5.91796875 C0 3 0 3 0 0 Z " fill="#361F6C" transform="translate(3,460)"/>
<path d="M0 0 C2.31 0.33 4.62 0.66 7 1 C6.34 2.32 5.68 3.64 5 5 C2.69 4.34 0.38 3.68 -2 3 C-1.34 2.01 -0.68 1.02 0 0 Z " fill="#292A7F" transform="translate(274,293)"/>
<path d="M0 0 C1.98 0.495 1.98 0.495 4 1 C3.67 2.65 3.34 4.3 3 6 C1.68 5.67 0.36 5.34 -1 5 C-0.67 3.35 -0.34 1.7 0 0 Z " fill="#F6EEDF" transform="translate(333,273)"/>
<path d="M0 0 C2.625 0.375 2.625 0.375 5 1 C5.33 2.65 5.66 4.3 6 6 C5.01 5.01 4.02 4.02 3 3 C-0.27773504 3.75150023 -0.27773504 3.75150023 -2 7 C-2.125 4.625 -2.125 4.625 -2 2 C-1.34 1.34 -0.68 0.68 0 0 Z " fill="#3B3F8D" transform="translate(78,236)"/>
<path d="M0 0 C0.99 0 1.98 0 3 0 C3.226875 0.78375 3.45375 1.5675 3.6875 2.375 C4.78125 5.21875 4.78125 5.21875 7.625 6.3125 C8.800625 6.6528125 8.800625 6.6528125 10 7 C10 7.33 10 7.66 10 8 C6.35117201 8.20271267 4.16995583 7.81140333 1 6 C0.67 6 0.34 6 0 6 C0 4.02 0 2.04 0 0 Z " fill="#F5CC51" transform="translate(92,175)"/>
<path d="M0 0 C-1.20703125 1.51953125 -1.20703125 1.51953125 -3 3 C-5.26171875 3.07421875 -5.26171875 3.07421875 -7.6875 2.6875 C-8.89986328 2.50767578 -8.89986328 2.50767578 -10.13671875 2.32421875 C-10.75160156 2.21722656 -11.36648438 2.11023438 -12 2 C-7.89783794 -0.73477471 -4.73617773 -1.57872591 0 0 Z " fill="#C6CBDE" transform="translate(295,253)"/>
<path d="M0 0 C2.475 0.99 2.475 0.99 5 2 C5 2.66 5 3.32 5 4 C5.99 4.33 6.98 4.66 8 5 C7.67 5.99 7.34 6.98 7 8 C5.8274869 7.04882866 4.66212985 6.08882991 3.5 5.125 C2.8503125 4.59132812 2.200625 4.05765625 1.53125 3.5078125 C1.0259375 3.01023438 0.520625 2.51265625 0 2 C0 1.34 0 0.68 0 0 Z " fill="#374F90" transform="translate(131,181)"/>
<path d="M0 0 C0.33 0 0.66 0 1 0 C1 2.97 1 5.94 1 9 C0.01 9.495 0.01 9.495 -1 10 C-2.38125018 7.23749964 -2.19079306 5.05268901 -2 2 C-1.34 1.34 -0.68 0.68 0 0 Z " fill="#E5C260" transform="translate(104,209)"/>
<path d="M0 0 C0.99 0.33 1.98 0.66 3 1 C3 3.31 3 5.62 3 8 C2.01 8 1.02 8 0 8 C0 5.36 0 2.72 0 0 Z " fill="#2F2E8B" transform="translate(268,300)"/>
<path d="M0 0 C3.375 0.3125 3.375 0.3125 7 1 C7.66 1.99 8.32 2.98 9 4 C6.03 3.67 3.06 3.34 0 3 C0 2.01 0 1.02 0 0 Z " fill="#252A82" transform="translate(262,285)"/>
<path d="M0 0 C0.66 0 1.32 0 2 0 C2 2.64 2 5.28 2 8 C1.01 8 0.02 8 -1 8 C-1.125 2.25 -1.125 2.25 0 0 Z " fill="#2E2B82" transform="translate(250,300)"/>
<path d="M0 0 C0.556875 0.226875 1.11375 0.45375 1.6875 0.6875 C0.0375 1.0175 -1.6125 1.3475 -3.3125 1.6875 C-3.6425 3.3375 -3.9725 4.9875 -4.3125 6.6875 C-5.3025 5.3675 -6.2925 4.0475 -7.3125 2.6875 C-2.88173077 -0.38942308 -2.88173077 -0.38942308 0 0 Z " fill="#F2BF75" transform="translate(327.3125,258.3125)"/>
<path d="M0 0 C3.1875 -0.375 3.1875 -0.375 7 0 C9.1403498 1.81188028 10.38988302 3.65801167 12 6 C9 6 9 6 7 5 C6.67 4.01 6.34 3.02 6 2 C3.03 1.505 3.03 1.505 0 1 C0 0.67 0 0.34 0 0 Z " fill="#E5B948" transform="translate(119,176)"/>
<path d="M0 0 C0.66 0 1.32 0 2 0 C0.55922954 3.36179774 -1.24750021 5.59156268 -4 8 C-4.66 8 -5.32 8 -6 8 C-6 7.34 -6 6.68 -6 6 C-5.34 6 -4.68 6 -4 6 C-3.71125 5.38125 -3.4225 4.7625 -3.125 4.125 C-2 2 -2 2 0 0 Z " fill="#34297F" transform="translate(290,311)"/>
<path d="M0 0 C1.0625 1.875 1.0625 1.875 2 4 C1.67 4.66 1.34 5.32 1 6 C-1.97 5.67 -4.94 5.34 -8 5 C-8 4.67 -8 4.34 -8 4 C-7.05125 3.896875 -6.1025 3.79375 -5.125 3.6875 C-1.70892499 3.31460705 -1.70892499 3.31460705 0 0 Z " fill="#414796" transform="translate(248,289)"/>
<path d="M0 0 C2.31 0.33 4.62 0.66 7 1 C7 1.99 7 2.98 7 4 C4.69 4 2.38 4 0 4 C0 2.68 0 1.36 0 0 Z " fill="#EAB75D" transform="translate(106,250)"/>
<path d="M0 0 C0.66 0.33 1.32 0.66 2 1 C2 1.99 2 2.98 2 4 C1.34 4 0.68 4 0 4 C0 4.66 0 5.32 0 6 C-1.32 6.33 -2.64 6.66 -4 7 C-4.33 6.34 -4.66 5.68 -5 5 C-3.35 3.35 -1.7 1.7 0 0 Z " fill="#3C3F8B" transform="translate(88,242)"/>
<path d="M0 0 C1.17825358 0.90172468 2.34231577 1.82201502 3.5 2.75 C4.1496875 3.26046875 4.799375 3.7709375 5.46875 4.296875 C7 6 7 6 7 10 C6.01 9.67 5.02 9.34 4 9 C4 8.01 4 7.02 4 6 C2.68733482 4.64631404 1.35432675 3.31200404 0 2 C0 1.34 0 0.68 0 0 Z " fill="#232978" transform="translate(301,239)"/>
<path d="M0 0 C0.99 0 1.98 0 3 0 C3 0.66 3 1.32 3 2 C3.66 2.33 4.32 2.66 5 3 C2 5 2 5 -1 5 C-0.67 3.35 -0.34 1.7 0 0 Z " fill="#3C4293" transform="translate(238,283)"/>
<path d="M0 0 C1.134375 0.020625 2.26875 0.04125 3.4375 0.0625 C2.880625 0.330625 2.32375 0.59875 1.75 0.875 C-0.75962523 2.16372647 -3.15584236 3.59176478 -5.5625 5.0625 C-4.43693182 0.07784091 -4.43693182 0.07784091 0 0 Z " fill="#252684" transform="translate(118.5625,271.9375)"/>
<path d="M0 0 C1.65 1.65 3.3 3.3 5 5 C4.01 5.66 3.02 6.32 2 7 C0.68 5.35 -0.64 3.7 -2 2 C-1.34 2 -0.68 2 0 2 C0 1.34 0 0.68 0 0 Z " fill="#393C81" transform="translate(85,230)"/>
<path d="M0 0 C3.16115776 1.36983503 3.9927092 1.9890638 6 5 C5.01 5.33 4.02 5.66 3 6 C1.68 4.35 0.36 2.7 -1 1 C-0.67 0.67 -0.34 0.34 0 0 Z " fill="#29408A" transform="translate(311,186)"/>
<path d="M0 0 C0.66 0.66 1.32 1.32 2 2 C-1.465 4.97 -1.465 4.97 -5 8 C-5 7.01 -5 6.02 -5 5 C-4.34 5 -3.68 5 -3 5 C-2.5359375 4.0409375 -2.5359375 4.0409375 -2.0625 3.0625 C-1 1 -1 1 0 0 Z " fill="#291C70" transform="translate(499,500)"/>
<path d="M0 0 C0 3 0 3 -2 6 C-4.625 6.6875 -4.625 6.6875 -7 7 C-4.78071806 4.09197539 -3.07030857 2.04687238 0 0 Z " fill="#DFA26F" transform="translate(159,319)"/>
<path d="M0 0 C0.33 0 0.66 0 1 0 C1 2.64 1 5.28 1 8 C-0.32 8 -1.64 8 -3 8 C-3 7.34 -3 6.68 -3 6 C-2.34 5.67 -1.68 5.34 -1 5 C-0.34444881 2.47266765 -0.34444881 2.47266765 0 0 Z " fill="#464C95" transform="translate(252,264)"/>
<path d="M0 0 C0.99 0.33 1.98 0.66 3 1 C2.34 2.98 1.68 4.96 1 7 C0.34 6.34 -0.32 5.68 -1 5 C-0.625 2.375 -0.625 2.375 0 0 Z " fill="#37438E" transform="translate(269,262)"/>
<path d="M0 0 C1.98 0 3.96 0 6 0 C5.67 0.66 5.34 1.32 5 2 C4.34 2 3.68 2 3 2 C2.67 3.65 2.34 5.3 2 7 C1.67 7 1.34 7 1 7 C0.67 4.69 0.34 2.38 0 0 Z " fill="#F4BA63" transform="translate(151,227)"/>
</svg>
